<?xml version="1.0" encoding="UTF-8"?>
<svg xmlns="http://www.w3.org/2000/svg" xmlns:xlink="http://www.w3.org/1999/xlink" width="300px" height="75px" viewBox="0 0 299 75" version="1.1">
<g id="surface1">
<path style=" stroke:none;fill-rule:nonzero;fill:rgb(99.607843%,99.607843%,99.607843%);fill-opacity:1;" d="M 194.695312 29.621094 C 194.996094 29.613281 195.300781 29.605469 195.613281 29.59375 C 198.246094 29.570312 200.140625 30.257812 202.363281 31.628906 C 202.464844 31.53125 202.566406 31.433594 202.671875 31.332031 C 204.175781 29.949219 205.601562 29.582031 207.632812 29.621094 C 209.519531 29.863281 211.335938 30.730469 212.648438 32.109375 C 213.960938 33.820312 214.617188 35.257812 214.632812 37.449219 C 214.632812 37.617188 214.636719 37.785156 214.636719 37.960938 C 214.640625 38.511719 214.640625 39.066406 214.644531 39.617188 C 214.644531 40.003906 214.644531 40.390625 214.648438 40.777344 C 214.652344 41.589844 214.652344 42.398438 214.652344 43.207031 C 214.652344 44.242188 214.65625 45.273438 214.664062 46.308594 C 214.671875 47.105469 214.671875 47.90625 214.671875 48.703125 C 214.671875 49.085938 214.675781 49.464844 214.679688 49.847656 C 214.683594 50.382812 214.679688 50.914062 214.679688 51.449219 C 214.679688 51.753906 214.679688 52.054688 214.679688 52.367188 C 214.539062 53.347656 214.214844 53.863281 213.605469 54.632812 C 212.839844 55.195312 212.148438 55.222656 211.214844 55.113281 C 210.265625 54.601562 209.675781 54.210938 209.300781 53.195312 C 209.238281 52.460938 209.238281 52.460938 209.238281 51.585938 C 209.238281 51.429688 209.238281 51.269531 209.234375 51.105469 C 209.234375 50.757812 209.234375 50.414062 209.234375 50.066406 C 209.234375 49.519531 209.230469 48.972656 209.226562 48.425781 C 209.214844 46.871094 209.210938 45.316406 209.207031 43.761719 C 209.207031 42.8125 209.203125 41.859375 209.191406 40.90625 C 209.191406 40.546875 209.191406 40.183594 209.191406 39.820312 C 209.191406 39.3125 209.1875 38.808594 209.183594 38.300781 C 209.183594 38.011719 209.183594 37.722656 209.183594 37.425781 C 209.035156 36.507812 208.765625 36.109375 208.105469 35.464844 C 207.171875 35.191406 206.660156 35.132812 205.757812 35.492188 C 204.960938 36.175781 204.777344 36.847656 204.695312 37.882812 C 204.695312 38.164062 204.695312 38.441406 204.695312 38.726562 C 204.691406 38.882812 204.691406 39.035156 204.691406 39.195312 C 204.691406 39.527344 204.6875 39.863281 204.691406 40.195312 C 204.691406 40.726562 204.6875 41.253906 204.683594 41.785156 C 204.671875 43.285156 204.664062 44.789062 204.664062 46.292969 C 204.664062 47.214844 204.65625 48.136719 204.648438 49.054688 C 204.644531 49.40625 204.644531 49.757812 204.648438 50.105469 C 204.648438 50.597656 204.644531 51.085938 204.640625 51.578125 C 204.636719 51.855469 204.636719 52.132812 204.636719 52.421875 C 204.46875 53.5 203.996094 54.3125 203.109375 54.960938 C 202.042969 55.277344 201.382812 55.222656 200.390625 54.707031 C 199.671875 54.101562 199.519531 53.835938 199.253906 52.957031 C 199.195312 52.191406 199.195312 52.191406 199.191406 51.316406 C 199.191406 51.15625 199.191406 50.996094 199.191406 50.832031 C 199.1875 50.488281 199.1875 50.140625 199.1875 49.796875 C 199.1875 49.25 199.183594 48.703125 199.179688 48.15625 C 199.171875 46.601562 199.164062 45.046875 199.164062 43.492188 C 199.160156 42.539062 199.15625 41.585938 199.148438 40.636719 C 199.144531 40.273438 199.144531 39.910156 199.144531 39.546875 C 199.148438 39.042969 199.144531 38.535156 199.136719 38.027344 C 199.136719 37.742188 199.136719 37.453125 199.136719 37.15625 C 198.992188 36.277344 198.746094 36.003906 198.058594 35.464844 C 197.378906 35.125 196.75 35.140625 195.996094 35.089844 C 195.710938 35.070312 195.425781 35.046875 195.132812 35.027344 C 194.804688 35.007812 194.804688 35.007812 194.46875 34.984375 C 194.472656 35.210938 194.472656 35.433594 194.472656 35.667969 C 194.488281 37.792969 194.5 39.917969 194.507812 42.046875 C 194.511719 43.136719 194.515625 44.230469 194.523438 45.324219 C 194.53125 46.378906 194.535156 47.433594 194.539062 48.488281 C 194.539062 48.890625 194.542969 49.292969 194.546875 49.695312 C 194.550781 50.257812 194.550781 50.824219 194.550781 51.386719 C 194.554688 51.554688 194.554688 51.71875 194.558594 51.890625 C 194.550781 52.925781 194.390625 53.574219 193.753906 54.394531 C 192.796875 54.960938 192.300781 55.144531 191.195312 54.976562 C 190.394531 54.628906 189.972656 54.363281 189.445312 53.675781 C 189.105469 52.738281 189.171875 51.746094 189.171875 50.761719 C 189.171875 50.5625 189.171875 50.367188 189.171875 50.164062 C 189.167969 49.515625 189.167969 48.867188 189.167969 48.21875 C 189.167969 47.765625 189.164062 47.3125 189.164062 46.863281 C 189.164062 45.914062 189.164062 44.96875 189.164062 44.019531 C 189.164062 42.808594 189.160156 41.597656 189.15625 40.382812 C 189.152344 39.449219 189.152344 38.515625 189.152344 37.582031 C 189.152344 37.136719 189.152344 36.691406 189.148438 36.242188 C 189.148438 35.617188 189.148438 34.992188 189.148438 34.367188 C 189.148438 34.183594 189.144531 34 189.144531 33.808594 C 189.152344 32.480469 189.28125 31.394531 190.148438 30.355469 C 191.390625 29.339844 193.171875 29.640625 194.695312 29.621094 Z M 194.695312 29.621094 "/>
<path style=" stroke:none;fill-rule:nonzero;fill:rgb(99.607843%,99.607843%,99.607843%);fill-opacity:1;" d="M 106.714844 29.425781 C 106.957031 29.421875 107.203125 29.417969 107.453125 29.414062 C 108.574219 29.402344 109.695312 29.394531 110.816406 29.390625 C 111.40625 29.386719 111.996094 29.378906 112.585938 29.371094 C 113.4375 29.355469 114.292969 29.351562 115.144531 29.347656 C 115.40625 29.34375 115.664062 29.335938 115.929688 29.332031 C 118.355469 29.335938 120.390625 30.015625 122.214844 31.644531 C 124.246094 33.878906 124.570312 36.339844 124.503906 39.265625 C 124.503906 39.726562 124.503906 39.726562 124.503906 40.195312 C 124.476562 42.820312 124.476562 42.820312 123.667969 44.089844 C 122.699219 44.839844 121.851562 44.910156 120.664062 44.890625 C 120.398438 44.890625 120.398438 44.890625 120.128906 44.890625 C 119.542969 44.890625 118.960938 44.882812 118.375 44.878906 C 117.972656 44.878906 117.566406 44.875 117.160156 44.875 C 116.09375 44.871094 115.027344 44.867188 113.960938 44.859375 C 112.871094 44.851562 111.785156 44.847656 110.695312 44.84375 C 108.558594 44.835938 106.425781 44.824219 104.292969 44.808594 C 104.320312 45.269531 104.347656 45.726562 104.382812 46.1875 C 104.398438 46.441406 104.414062 46.699219 104.429688 46.960938 C 104.523438 47.644531 104.636719 48.066406 105.007812 48.640625 C 106.269531 49.53125 107.519531 49.460938 109 49.449219 C 109.503906 49.453125 110.003906 49.457031 110.507812 49.460938 C 111.296875 49.464844 112.082031 49.464844 112.871094 49.464844 C 113.636719 49.464844 114.398438 49.472656 115.160156 49.480469 C 115.394531 49.476562 115.632812 49.476562 115.875 49.472656 C 116.921875 49.484375 117.515625 49.496094 118.421875 50.0625 C 119.21875 50.921875 119.363281 51.253906 119.347656 52.460938 C 119.1875 53.492188 118.738281 53.976562 117.925781 54.632812 C 117.355469 54.917969 117.007812 54.902344 116.375 54.90625 C 116.148438 54.910156 115.925781 54.910156 115.699219 54.910156 C 115.457031 54.910156 115.214844 54.914062 114.964844 54.914062 C 114.714844 54.914062 114.464844 54.914062 114.210938 54.914062 C 113.679688 54.917969 113.152344 54.917969 112.625 54.917969 C 111.820312 54.917969 111.015625 54.921875 110.210938 54.925781 C 109.699219 54.925781 109.183594 54.925781 108.671875 54.925781 C 108.433594 54.929688 108.195312 54.929688 107.949219 54.933594 C 105.207031 54.921875 103.199219 54.425781 101.179688 52.492188 C 99.199219 50.351562 98.992188 48.167969 98.988281 45.34375 C 98.988281 45.09375 98.988281 44.847656 98.984375 44.589844 C 98.984375 44.066406 98.984375 43.542969 98.984375 43.019531 C 98.984375 42.222656 98.980469 41.425781 98.976562 40.628906 C 98.972656 40.117188 98.972656 39.609375 98.972656 39.097656 C 98.972656 38.863281 98.96875 38.625 98.96875 38.382812 C 98.976562 35.558594 99.558594 33.546875 101.480469 31.449219 C 102.914062 30.074219 104.757812 29.453125 106.714844 29.425781 Z M 104.976562 35.445312 C 103.964844 37.113281 104.292969 36.824219 104.292969 39.535156 C 109.183594 39.535156 114.078125 39.535156 119.121094 39.535156 C 119.367188 36.839844 119.367188 36.839844 118.402344 35.464844 C 117.707031 34.800781 117.234375 34.652344 116.28125 34.640625 C 116.050781 34.636719 115.820312 34.628906 115.582031 34.625 C 115.335938 34.625 115.085938 34.625 114.832031 34.625 C 114.574219 34.621094 114.320312 34.617188 114.054688 34.617188 C 113.515625 34.613281 112.972656 34.609375 112.433594 34.609375 C 111.605469 34.609375 110.777344 34.597656 109.953125 34.582031 C 109.425781 34.582031 108.898438 34.578125 108.375 34.578125 C 108.125 34.574219 107.878906 34.570312 107.625 34.5625 C 106.121094 34.5625 106.121094 34.5625 104.976562 35.445312 Z M 104.976562 35.445312 "/>
<path style=" stroke:none;fill-rule:nonzero;fill:rgb(99.607843%,99.607843%,99.607843%);fill-opacity:1;" d="M 48.449219 29.191406 C 48.8125 29.191406 48.8125 29.191406 49.183594 29.191406 C 49.695312 29.1875 50.207031 29.1875 50.71875 29.1875 C 51.496094 29.1875 52.277344 29.183594 53.054688 29.179688 C 53.550781 29.179688 54.050781 29.179688 54.550781 29.179688 C 54.78125 29.175781 55.011719 29.175781 55.246094 29.171875 C 57.71875 29.179688 59.730469 29.609375 61.714844 31.148438 C 63.785156 33.253906 64.386719 35.605469 64.375 38.511719 C 64.375 38.683594 64.378906 38.859375 64.378906 39.042969 C 64.378906 39.414062 64.378906 39.785156 64.375 40.15625 C 64.375 40.710938 64.375 41.265625 64.378906 41.820312 C 64.382812 49.964844 64.382812 49.964844 61.78125 52.71875 C 60.300781 54.003906 58.589844 54.65625 56.648438 54.671875 C 56.277344 54.675781 56.277344 54.675781 55.898438 54.679688 C 55.632812 54.679688 55.367188 54.679688 55.09375 54.679688 C 54.820312 54.683594 54.546875 54.683594 54.261719 54.683594 C 53.679688 54.6875 53.097656 54.6875 52.515625 54.691406 C 51.628906 54.691406 50.742188 54.699219 49.859375 54.707031 C 49.292969 54.710938 48.726562 54.710938 48.160156 54.710938 C 47.894531 54.714844 47.632812 54.71875 47.359375 54.71875 C 44.734375 54.710938 42.804688 54.09375 40.902344 52.238281 C 39.195312 50.136719 38.914062 48.296875 38.910156 45.640625 C 38.90625 45.351562 38.90625 45.0625 38.90625 44.761719 C 38.902344 44.148438 38.902344 43.535156 38.902344 42.917969 C 38.898438 41.984375 38.890625 41.046875 38.882812 40.113281 C 38.878906 39.515625 38.878906 38.917969 38.878906 38.320312 C 38.875 38.042969 38.871094 37.761719 38.867188 37.476562 C 38.882812 35.15625 39.515625 33.105469 41.140625 31.390625 C 43.457031 29.554688 45.5625 29.195312 48.449219 29.191406 Z M 44.585938 35.65625 C 44.191406 36.273438 44.160156 36.621094 44.152344 37.351562 C 44.148438 37.582031 44.144531 37.8125 44.140625 38.050781 C 44.140625 38.296875 44.140625 38.546875 44.140625 38.800781 C 44.136719 39.058594 44.136719 39.316406 44.132812 39.578125 C 44.132812 40.121094 44.132812 40.664062 44.132812 41.203125 C 44.132812 42.035156 44.121094 42.863281 44.113281 43.691406 C 44.109375 44.21875 44.109375 44.746094 44.109375 45.273438 C 44.105469 45.519531 44.101562 45.765625 44.097656 46.023438 C 44.109375 47.457031 44.109375 47.457031 44.828125 48.671875 C 45.640625 49.261719 46.03125 49.390625 47.015625 49.402344 C 47.242188 49.40625 47.46875 49.410156 47.699219 49.414062 C 48.066406 49.414062 48.066406 49.414062 48.441406 49.417969 C 48.695312 49.421875 48.945312 49.421875 49.203125 49.425781 C 49.738281 49.425781 50.269531 49.429688 50.800781 49.433594 C 51.617188 49.4375 52.429688 49.445312 53.246094 49.457031 C 53.761719 49.460938 54.277344 49.460938 54.796875 49.464844 C 55.039062 49.46875 55.285156 49.472656 55.535156 49.476562 C 56.558594 49.472656 57.226562 49.457031 58.140625 48.964844 C 59.203125 47.675781 59.15625 46.277344 59.15625 44.683594 C 59.15625 44.355469 59.15625 44.355469 59.15625 44.023438 C 59.160156 43.566406 59.160156 43.105469 59.15625 42.648438 C 59.15625 41.949219 59.164062 41.253906 59.167969 40.554688 C 59.167969 40.109375 59.167969 39.664062 59.167969 39.214844 C 59.171875 39.007812 59.171875 38.800781 59.175781 38.589844 C 59.167969 37.289062 59.039062 36.347656 58.363281 35.222656 C 57.171875 34.324219 55.910156 34.398438 54.476562 34.410156 C 54.242188 34.410156 54.007812 34.40625 53.769531 34.40625 C 53.273438 34.40625 52.78125 34.40625 52.289062 34.410156 C 51.535156 34.414062 50.78125 34.410156 50.027344 34.40625 C 49.546875 34.40625 49.066406 34.40625 48.585938 34.410156 C 48.363281 34.40625 48.136719 34.40625 47.90625 34.40625 C 46.484375 34.421875 45.574219 34.542969 44.585938 35.65625 Z M 44.585938 35.65625 "/>
<path style=" stroke:none;fill-rule:nonzero;fill:rgb(99.607843%,99.607843%,99.607843%);fill-opacity:1;" d="M 166.566406 29.671875 C 166.949219 29.664062 166.949219 29.664062 167.339844 29.660156 C 167.617188 29.660156 167.890625 29.65625 168.175781 29.65625 C 168.460938 29.652344 168.746094 29.652344 169.039062 29.648438 C 169.640625 29.644531 170.246094 29.644531 170.847656 29.640625 C 171.765625 29.636719 172.683594 29.628906 173.601562 29.617188 C 174.191406 29.613281 174.777344 29.613281 175.367188 29.609375 C 175.636719 29.605469 175.910156 29.601562 176.191406 29.597656 C 178.644531 29.605469 180.535156 30.203125 182.328125 31.902344 C 183.710938 33.371094 184.476562 34.777344 184.492188 36.847656 C 184.496094 37.113281 184.5 37.378906 184.5 37.652344 C 184.503906 37.9375 184.503906 38.222656 184.503906 38.515625 C 184.507812 38.960938 184.507812 38.960938 184.507812 39.414062 C 184.511719 40.039062 184.511719 40.664062 184.511719 41.289062 C 184.511719 42.242188 184.523438 43.195312 184.53125 44.148438 C 184.53125 44.757812 184.53125 45.363281 184.535156 45.972656 C 184.535156 46.257812 184.539062 46.539062 184.542969 46.832031 C 184.527344 49.566406 183.703125 51.28125 181.792969 53.195312 C 179.972656 54.925781 177.980469 54.980469 175.597656 54.976562 C 175.304688 54.976562 175.007812 54.980469 174.707031 54.980469 C 174.085938 54.980469 173.464844 54.980469 172.84375 54.980469 C 171.898438 54.976562 170.957031 54.984375 170.011719 54.992188 C 169.40625 54.992188 168.800781 54.992188 168.195312 54.992188 C 167.777344 54.996094 167.777344 54.996094 167.347656 55 C 165.316406 54.980469 163.640625 54.644531 161.984375 53.414062 C 160.425781 51.777344 159.289062 50.1875 159.265625 47.847656 C 159.261719 47.585938 159.257812 47.324219 159.253906 47.054688 C 159.253906 46.773438 159.253906 46.492188 159.25 46.199219 C 159.25 45.910156 159.246094 45.617188 159.246094 45.316406 C 159.242188 44.699219 159.238281 44.082031 159.238281 43.464844 C 159.234375 42.527344 159.222656 41.585938 159.210938 40.648438 C 159.210938 40.046875 159.207031 39.449219 159.207031 38.847656 C 159.199219 38.566406 159.195312 38.289062 159.191406 38 C 159.199219 35.253906 159.957031 33.410156 161.847656 31.421875 C 163.226562 30.179688 164.734375 29.6875 166.566406 29.671875 Z M 164.890625 35.894531 C 164.511719 36.515625 164.476562 36.871094 164.472656 37.589844 C 164.46875 37.820312 164.46875 38.050781 164.464844 38.289062 C 164.464844 38.539062 164.464844 38.785156 164.464844 39.042969 C 164.464844 39.296875 164.464844 39.554688 164.460938 39.820312 C 164.460938 40.359375 164.460938 40.902344 164.464844 41.445312 C 164.464844 42.273438 164.457031 43.101562 164.449219 43.929688 C 164.449219 44.457031 164.449219 44.984375 164.449219 45.511719 C 164.449219 45.757812 164.445312 46.007812 164.441406 46.261719 C 164.453125 47.292969 164.472656 47.980469 164.964844 48.898438 C 166.242188 49.953125 167.613281 49.914062 169.1875 49.914062 C 169.398438 49.914062 169.613281 49.914062 169.828125 49.914062 C 170.277344 49.917969 170.722656 49.917969 171.167969 49.914062 C 171.847656 49.914062 172.527344 49.921875 173.207031 49.925781 C 173.640625 49.925781 174.074219 49.925781 174.511719 49.925781 C 174.710938 49.929688 174.914062 49.933594 175.121094 49.933594 C 176.40625 49.925781 177.3125 49.753906 178.441406 49.121094 C 179.054688 48.445312 179.25 47.996094 179.277344 47.089844 C 179.28125 46.878906 179.289062 46.671875 179.296875 46.453125 C 179.300781 46.113281 179.300781 46.113281 179.308594 45.769531 C 179.3125 45.535156 179.320312 45.300781 179.328125 45.058594 C 179.339844 44.566406 179.347656 44.070312 179.355469 43.574219 C 179.371094 42.820312 179.390625 42.066406 179.414062 41.3125 C 179.421875 40.832031 179.433594 40.351562 179.441406 39.867188 C 179.449219 39.644531 179.457031 39.421875 179.464844 39.191406 C 179.480469 37.835938 179.359375 36.886719 178.683594 35.703125 C 178.007812 35.089844 177.5625 34.894531 176.65625 34.867188 C 176.445312 34.863281 176.234375 34.855469 176.019531 34.847656 C 175.679688 34.84375 175.679688 34.84375 175.335938 34.835938 C 174.984375 34.828125 174.984375 34.828125 174.628906 34.816406 C 174.132812 34.804688 173.640625 34.796875 173.148438 34.789062 C 172.394531 34.773438 171.640625 34.753906 170.886719 34.730469 C 170.40625 34.722656 169.925781 34.710938 169.445312 34.703125 C 169.222656 34.695312 169 34.6875 168.769531 34.679688 C 167.28125 34.664062 165.960938 34.734375 164.890625 35.894531 Z M 164.890625 35.894531 "/>
<path style=" stroke:none;fill-rule:nonzero;fill:rgb(99.607843%,99.607843%,99.607843%);fill-opacity:1;" d="M 77.738281 19.410156 C 78.53125 19.855469 78.851562 20.167969 79.203125 21.003906 C 79.441406 21.90625 79.476562 22.738281 79.46875 23.660156 C 79.46875 23.84375 79.46875 24.023438 79.46875 24.207031 C 79.46875 24.800781 79.464844 25.390625 79.460938 25.980469 C 79.460938 26.394531 79.460938 26.804688 79.460938 27.214844 C 79.457031 28.296875 79.453125 29.375 79.445312 30.457031 C 79.441406 31.558594 79.441406 32.664062 79.4375 33.765625 C 79.433594 35.929688 79.425781 38.09375 79.414062 40.253906 C 79.65625 40.011719 79.65625 40.011719 79.90625 39.757812 C 80.121094 39.542969 80.332031 39.328125 80.554688 39.105469 C 80.765625 38.894531 80.976562 38.679688 81.195312 38.460938 C 81.6875 37.976562 82.1875 37.515625 82.714844 37.070312 C 83.597656 36.3125 84.414062 35.5 85.234375 34.671875 C 85.367188 34.535156 85.503906 34.402344 85.640625 34.261719 C 86.199219 33.695312 86.757812 33.125 87.316406 32.558594 C 87.726562 32.136719 88.140625 31.71875 88.550781 31.300781 C 88.675781 31.175781 88.804688 31.046875 88.933594 30.914062 C 89.828125 30.007812 90.433594 29.542969 91.6875 29.351562 C 92.710938 29.492188 93.191406 29.746094 93.925781 30.453125 C 94.40625 31.136719 94.488281 31.667969 94.394531 32.492188 C 93.886719 34.445312 91.464844 36.128906 90.058594 37.53125 C 89.667969 37.921875 89.28125 38.308594 88.894531 38.699219 C 88.644531 38.949219 88.394531 39.199219 88.144531 39.449219 C 87.972656 39.621094 87.972656 39.621094 87.796875 39.796875 C 87.109375 40.480469 86.398438 41.101562 85.632812 41.691406 C 85.949219 42.394531 86.289062 42.886719 86.835938 43.421875 C 86.980469 43.566406 87.128906 43.714844 87.277344 43.863281 C 87.4375 44.015625 87.59375 44.167969 87.753906 44.328125 C 87.917969 44.488281 88.078125 44.648438 88.246094 44.816406 C 88.941406 45.5 89.636719 46.183594 90.332031 46.867188 C 90.839844 47.367188 91.34375 47.871094 91.851562 48.371094 C 92.007812 48.523438 92.164062 48.679688 92.328125 48.835938 C 93.332031 49.832031 94.152344 50.652344 94.363281 52.101562 C 94.207031 53.234375 93.847656 53.59375 93.046875 54.394531 C 92.257812 54.789062 91.507812 54.808594 90.65625 54.632812 C 88.601562 53.316406 86.871094 51.105469 85.15625 49.375 C 84.828125 49.046875 84.503906 48.722656 84.179688 48.394531 C 83.386719 47.597656 82.597656 46.804688 81.804688 46.007812 C 81.542969 46.230469 81.277344 46.457031 81.015625 46.679688 C 80.867188 46.804688 80.71875 46.929688 80.566406 47.058594 C 79.730469 47.730469 79.730469 47.730469 79.324219 48.664062 C 79.320312 48.855469 79.320312 49.042969 79.316406 49.238281 C 79.3125 49.449219 79.308594 49.65625 79.300781 49.871094 C 79.300781 50.089844 79.296875 50.304688 79.292969 50.527344 C 79.269531 53.148438 79.269531 53.148438 78.457031 54.152344 C 77.738281 54.714844 76.957031 54.734375 76.058594 54.707031 C 75.28125 54.582031 74.90625 54.253906 74.390625 53.675781 C 73.796875 52.359375 73.847656 51.085938 73.859375 49.671875 C 73.859375 49.410156 73.859375 49.152344 73.859375 48.886719 C 73.859375 48.019531 73.863281 47.15625 73.867188 46.289062 C 73.871094 45.683594 73.871094 45.074219 73.875 44.464844 C 73.882812 43.144531 73.890625 41.824219 73.898438 40.503906 C 73.910156 39 73.914062 37.492188 73.917969 35.988281 C 73.921875 34.183594 73.933594 32.378906 73.945312 30.570312 C 73.953125 29.589844 73.957031 28.605469 73.960938 27.621094 C 73.960938 26.6875 73.96875 25.757812 73.976562 24.824219 C 73.980469 24.480469 73.980469 24.132812 73.980469 23.789062 C 73.980469 23.316406 73.988281 22.839844 73.996094 22.367188 C 73.996094 22.101562 73.996094 21.835938 74 21.5625 C 74.199219 20.621094 74.621094 20.257812 75.347656 19.648438 C 76.117188 19.265625 76.90625 19.296875 77.738281 19.410156 Z M 77.738281 19.410156 "/>
<path style=" stroke:none;fill-rule:nonzero;fill:rgb(99.607843%,99.607843%,99.607843%);fill-opacity:1;" d="M 256.757812 29.902344 C 257.015625 29.898438 257.277344 29.894531 257.542969 29.886719 C 258.730469 29.875 259.917969 29.863281 261.101562 29.855469 C 261.726562 29.851562 262.351562 29.839844 262.972656 29.832031 C 263.878906 29.8125 264.78125 29.808594 265.683594 29.804688 C 266.097656 29.792969 266.097656 29.792969 266.519531 29.78125 C 269.007812 29.789062 270.949219 30.632812 272.808594 32.289062 C 274.171875 33.777344 274.773438 35.621094 274.839844 37.621094 C 274.617188 38.6875 274.300781 39.378906 273.40625 40.015625 C 272.453125 40.308594 271.742188 40.363281 270.820312 39.972656 C 269.699219 39.042969 269.414062 38.121094 269.085938 36.742188 C 268.804688 36.046875 268.539062 35.851562 267.902344 35.464844 C 267.34375 35.351562 267.34375 35.351562 266.738281 35.363281 C 266.507812 35.359375 266.277344 35.355469 266.039062 35.351562 C 265.792969 35.351562 265.542969 35.351562 265.289062 35.351562 C 265.03125 35.347656 264.777344 35.347656 264.511719 35.34375 C 263.972656 35.34375 263.429688 35.34375 262.890625 35.34375 C 262.0625 35.34375 261.234375 35.332031 260.40625 35.324219 C 259.882812 35.320312 259.355469 35.320312 258.832031 35.320312 C 258.582031 35.316406 258.335938 35.3125 258.082031 35.308594 C 257.015625 35.320312 256.359375 35.359375 255.429688 35.90625 C 254.773438 37.027344 254.816406 38.027344 254.828125 39.304688 C 254.828125 39.5625 254.824219 39.816406 254.824219 40.082031 C 254.824219 40.621094 254.828125 41.160156 254.832031 41.703125 C 254.835938 42.527344 254.832031 43.355469 254.824219 44.183594 C 254.824219 44.707031 254.824219 45.234375 254.828125 45.757812 C 254.824219 46.128906 254.824219 46.128906 254.820312 46.507812 C 254.839844 47.640625 254.851562 48.21875 255.535156 49.152344 C 256.40625 49.753906 257.097656 49.871094 258.144531 49.875 C 258.339844 49.875 258.535156 49.878906 258.738281 49.878906 C 259.050781 49.878906 259.050781 49.878906 259.371094 49.878906 C 259.589844 49.882812 259.808594 49.882812 260.03125 49.882812 C 260.492188 49.882812 260.953125 49.882812 261.414062 49.882812 C 262.113281 49.886719 262.8125 49.890625 263.515625 49.894531 C 263.960938 49.894531 264.410156 49.894531 264.859375 49.894531 C 265.171875 49.898438 265.171875 49.898438 265.488281 49.902344 C 266.707031 49.894531 267.707031 49.753906 268.859375 49.359375 C 268.917969 49.070312 268.917969 49.070312 268.976562 48.773438 C 269.535156 46.210938 269.535156 46.210938 270.773438 45.289062 C 271.496094 44.925781 272.128906 45.007812 272.925781 45.046875 C 273.765625 45.328125 274.140625 45.742188 274.601562 46.484375 C 274.898438 48.339844 274.585938 49.914062 273.644531 51.515625 C 273.5625 51.667969 273.476562 51.816406 273.390625 51.972656 C 272.347656 53.636719 270.710938 54.570312 268.859375 55.113281 C 268.183594 55.175781 268.183594 55.175781 267.476562 55.175781 C 267.210938 55.179688 266.941406 55.183594 266.667969 55.183594 C 266.382812 55.183594 266.097656 55.183594 265.804688 55.183594 C 265.507812 55.183594 265.214844 55.1875 264.910156 55.1875 C 264.125 55.1875 263.339844 55.1875 262.554688 55.1875 C 261.757812 55.1875 260.964844 55.191406 260.171875 55.199219 C 259.5625 55.199219 258.953125 55.199219 258.34375 55.199219 C 258.0625 55.199219 257.777344 55.203125 257.484375 55.207031 C 255.347656 55.195312 253.738281 54.917969 252.085938 53.449219 C 251.804688 53.210938 251.804688 53.210938 251.515625 52.964844 C 249.816406 50.886719 249.269531 48.875 249.3125 46.230469 C 249.3125 45.941406 249.3125 45.652344 249.3125 45.355469 C 249.3125 44.75 249.316406 44.148438 249.324219 43.542969 C 249.335938 42.621094 249.335938 41.703125 249.332031 40.78125 C 249.335938 40.191406 249.335938 39.601562 249.339844 39.011719 C 249.339844 38.738281 249.339844 38.464844 249.339844 38.1875 C 249.386719 35.628906 250.0625 33.730469 251.824219 31.863281 C 253.296875 30.550781 254.804688 29.933594 256.757812 29.902344 Z M 256.757812 29.902344 "/>
<path style=" stroke:none;fill-rule:nonzero;fill:rgb(99.607843%,99.607843%,99.607843%);fill-opacity:1;" d="M 134.589844 29.394531 C 134.878906 29.394531 135.171875 29.394531 135.472656 29.394531 C 136.09375 29.398438 136.710938 29.402344 137.328125 29.40625 C 138.261719 29.414062 139.199219 29.414062 140.136719 29.417969 C 140.738281 29.417969 141.339844 29.421875 141.945312 29.425781 C 142.355469 29.425781 142.355469 29.425781 142.777344 29.425781 C 149.171875 29.480469 149.171875 29.480469 151.710938 31.195312 C 153.71875 33.25 154.546875 35.371094 154.558594 38.230469 C 154.558594 38.539062 154.5625 38.84375 154.5625 39.160156 C 154.5625 39.492188 154.5625 39.824219 154.5625 40.160156 C 154.5625 40.5 154.566406 40.84375 154.566406 41.1875 C 154.566406 41.90625 154.566406 42.625 154.566406 43.34375 C 154.566406 44.265625 154.570312 45.183594 154.574219 46.101562 C 154.578125 46.808594 154.578125 47.519531 154.578125 48.226562 C 154.578125 48.566406 154.578125 48.90625 154.582031 49.242188 C 154.582031 49.71875 154.582031 50.191406 154.582031 50.667969 C 154.582031 50.933594 154.582031 51.203125 154.582031 51.480469 C 154.496094 52.570312 154.285156 53.398438 153.566406 54.226562 C 152.945312 54.753906 152.667969 54.863281 151.847656 54.976562 C 150.8125 54.859375 150.375 54.671875 149.613281 53.980469 C 148.820312 52.757812 149.042969 51.140625 149.0625 49.726562 C 149.0625 49.363281 149.058594 48.996094 149.054688 48.632812 C 149.050781 47.671875 149.054688 46.714844 149.0625 45.753906 C 149.074219 44.21875 149.066406 42.6875 149.0625 41.152344 C 149.0625 40.617188 149.066406 40.082031 149.070312 39.546875 C 149.070312 39.21875 149.070312 38.886719 149.070312 38.558594 C 149.074219 38.273438 149.074219 37.988281 149.078125 37.691406 C 149.019531 36.867188 148.867188 36.222656 148.542969 35.464844 C 147.261719 34.730469 145.628906 34.898438 144.195312 34.886719 C 143.914062 34.878906 143.636719 34.875 143.347656 34.871094 C 142.457031 34.855469 141.570312 34.84375 140.679688 34.835938 C 140.074219 34.824219 139.472656 34.816406 138.867188 34.804688 C 137.386719 34.785156 135.910156 34.761719 134.429688 34.746094 C 134.433594 34.960938 134.433594 35.179688 134.433594 35.40625 C 134.449219 37.46875 134.460938 39.53125 134.46875 41.59375 C 134.472656 42.652344 134.476562 43.714844 134.484375 44.773438 C 134.492188 45.796875 134.496094 46.820312 134.5 47.84375 C 134.5 48.234375 134.503906 48.625 134.507812 49.015625 C 134.511719 49.5625 134.511719 50.109375 134.511719 50.65625 C 134.511719 50.96875 134.515625 51.28125 134.515625 51.601562 C 134.398438 52.8125 134.121094 53.808594 133.160156 54.617188 C 132.382812 54.925781 131.910156 54.992188 131.082031 54.871094 C 130.207031 54.382812 129.726562 54.03125 129.167969 53.195312 C 129.121094 52.507812 129.101562 51.84375 129.101562 51.15625 C 129.101562 50.949219 129.101562 50.738281 129.097656 50.527344 C 129.09375 49.835938 129.09375 49.148438 129.097656 48.457031 C 129.09375 47.980469 129.09375 47.5 129.09375 47.019531 C 129.089844 46.015625 129.089844 45.011719 129.09375 44.007812 C 129.09375 42.71875 129.089844 41.433594 129.085938 40.144531 C 129.082031 39.15625 129.082031 38.167969 129.082031 37.175781 C 129.082031 36.703125 129.078125 36.226562 129.078125 35.753906 C 129.074219 35.089844 129.078125 34.425781 129.078125 33.761719 C 129.078125 33.46875 129.078125 33.46875 129.074219 33.167969 C 129.085938 32.003906 129.234375 31.199219 129.886719 30.191406 C 131.351562 29.253906 132.894531 29.375 134.589844 29.394531 Z M 134.589844 29.394531 "/>
<path style=" stroke:none;fill-rule:nonzero;fill:rgb(99.607843%,99.607843%,99.607843%);fill-opacity:1;" d="M 22.722656 19.410156 C 23.34375 19.933594 23.796875 20.359375 24.160156 21.085938 C 24.179688 21.699219 24.1875 22.304688 24.183594 22.914062 C 24.183594 23.09375 24.183594 23.277344 24.179688 23.460938 C 24.179688 24.039062 24.175781 24.613281 24.175781 25.191406 C 24.171875 25.578125 24.171875 25.96875 24.171875 26.359375 C 24.167969 27.316406 24.164062 28.277344 24.160156 29.234375 C 24.398438 29.226562 24.636719 29.222656 24.882812 29.21875 C 25.773438 29.199219 26.664062 29.191406 27.554688 29.179688 C 27.941406 29.175781 28.324219 29.167969 28.710938 29.160156 C 29.261719 29.148438 29.816406 29.144531 30.371094 29.140625 C 30.542969 29.132812 30.714844 29.128906 30.890625 29.125 C 32.109375 29.125 32.789062 29.421875 33.726562 30.191406 C 34.183594 30.929688 34.207031 31.355469 34.191406 32.226562 C 33.925781 33.226562 33.554688 33.613281 32.769531 34.265625 C 32.035156 34.632812 31.269531 34.535156 30.464844 34.527344 C 30.195312 34.527344 30.195312 34.527344 29.921875 34.527344 C 29.347656 34.527344 28.769531 34.523438 28.195312 34.519531 C 27.804688 34.519531 27.417969 34.515625 27.027344 34.515625 C 26.070312 34.515625 25.113281 34.507812 24.160156 34.503906 C 24.164062 36.359375 24.175781 38.214844 24.195312 40.070312 C 24.203125 40.699219 24.203125 41.332031 24.207031 41.960938 C 24.207031 42.871094 24.21875 43.777344 24.230469 44.683594 C 24.226562 44.964844 24.226562 45.246094 24.226562 45.539062 C 24.238281 47.105469 24.238281 47.105469 24.960938 48.457031 C 25.90625 49.089844 26.589844 49.148438 27.699219 49.15625 C 27.972656 49.160156 28.246094 49.164062 28.527344 49.167969 C 29.101562 49.175781 29.675781 49.179688 30.25 49.183594 C 32.347656 49.226562 32.347656 49.226562 33.304688 49.921875 C 33.828125 50.710938 34.074219 51.292969 34.207031 52.238281 C 33.941406 53.175781 33.738281 53.726562 32.953125 54.316406 C 32.191406 54.683594 31.679688 54.722656 30.839844 54.71875 C 30.421875 54.71875 30.421875 54.71875 29.996094 54.71875 C 29.707031 54.714844 29.417969 54.710938 29.121094 54.707031 C 28.839844 54.707031 28.554688 54.710938 28.261719 54.710938 C 25.246094 54.691406 23.164062 54.242188 20.886719 52.222656 C 19.003906 50.183594 18.722656 47.746094 18.78125 45.082031 C 18.78125 44.777344 18.785156 44.472656 18.785156 44.160156 C 18.789062 43.359375 18.800781 42.5625 18.816406 41.761719 C 18.828125 40.941406 18.832031 40.125 18.839844 39.304688 C 18.851562 37.703125 18.871094 36.105469 18.898438 34.503906 C 18.722656 34.511719 18.542969 34.515625 18.363281 34.523438 C 18.011719 34.527344 18.011719 34.527344 17.65625 34.535156 C 17.425781 34.539062 17.195312 34.546875 16.957031 34.550781 C 15.980469 34.484375 15.3125 34.207031 14.53125 33.621094 C 13.960938 32.863281 13.890625 32.335938 13.875 31.390625 C 14.242188 30.382812 14.617188 29.765625 15.546875 29.234375 C 16.375 29.164062 16.375 29.164062 17.28125 29.1875 C 17.585938 29.195312 17.886719 29.203125 18.199219 29.207031 C 18.429688 29.214844 18.660156 29.226562 18.898438 29.234375 C 18.894531 29 18.890625 28.769531 18.886719 28.53125 C 18.871094 27.664062 18.863281 26.800781 18.855469 25.933594 C 18.855469 25.558594 18.847656 25.1875 18.84375 24.8125 C 18.832031 24.273438 18.828125 23.734375 18.828125 23.195312 C 18.824219 23.03125 18.820312 22.863281 18.816406 22.695312 C 18.816406 21.582031 19.023438 20.828125 19.613281 19.886719 C 20.695312 19.125 21.457031 19.039062 22.722656 19.410156 Z M 22.722656 19.410156 "/>
<path style=" stroke:none;fill-rule:nonzero;fill:rgb(99.607843%,99.607843%,99.607843%);fill-opacity:1;" d="M 227.84375 29.679688 C 228.152344 29.679688 228.152344 29.679688 228.464844 29.679688 C 228.675781 29.679688 228.890625 29.679688 229.109375 29.683594 C 229.320312 29.679688 229.527344 29.679688 229.746094 29.679688 C 232.898438 29.683594 232.898438 29.683594 233.90625 30.519531 C 234.714844 31.519531 234.6875 32.375 234.683594 33.601562 C 234.683594 33.777344 234.683594 33.949219 234.683594 34.132812 C 234.683594 34.710938 234.679688 35.289062 234.679688 35.871094 C 234.679688 36.273438 234.679688 36.675781 234.675781 37.074219 C 234.675781 38.132812 234.675781 39.191406 234.671875 40.25 C 234.667969 41.328125 234.667969 42.40625 234.667969 43.488281 C 234.664062 45.605469 234.660156 47.722656 234.65625 49.839844 C 234.832031 49.835938 235.007812 49.828125 235.1875 49.824219 C 235.539062 49.816406 235.539062 49.816406 235.894531 49.808594 C 236.242188 49.800781 236.242188 49.800781 236.59375 49.792969 C 237.570312 49.859375 238.242188 50.136719 239.019531 50.722656 C 239.601562 51.492188 239.679688 51.996094 239.679688 52.957031 C 239.390625 53.757812 239.015625 54.445312 238.28125 54.914062 C 237.691406 55.140625 237.234375 55.175781 236.601562 55.183594 C 236.375 55.1875 236.144531 55.191406 235.90625 55.195312 C 235.660156 55.199219 235.414062 55.199219 235.15625 55.199219 C 234.902344 55.203125 234.648438 55.203125 234.382812 55.207031 C 233.84375 55.210938 233.304688 55.214844 232.765625 55.214844 C 231.9375 55.214844 231.113281 55.226562 230.289062 55.242188 C 229.765625 55.242188 229.238281 55.246094 228.714844 55.246094 C 228.46875 55.25 228.222656 55.253906 227.96875 55.261719 C 226.054688 55.246094 226.054688 55.246094 225.171875 54.539062 C 224.457031 53.746094 224.359375 53.320312 224.316406 52.289062 C 224.40625 51.410156 224.726562 50.949219 225.328125 50.320312 C 226.679688 49.59375 227.757812 49.839844 229.394531 49.839844 C 229.394531 44.9375 229.394531 40.035156 229.394531 34.984375 C 228.289062 34.984375 227.183594 34.984375 226.042969 34.984375 C 224.601562 33.828125 224.601562 33.828125 224.371094 32.828125 C 224.386719 31.773438 224.496094 31.289062 225.160156 30.460938 C 226.046875 29.757812 226.734375 29.683594 227.84375 29.679688 Z M 227.84375 29.679688 "/>
<path style=" stroke:none;fill-rule:nonzero;fill:rgb(99.607843%,99.607843%,99.607843%);fill-opacity:1;" d="M 233.21875 19.886719 C 233.878906 20.410156 234.28125 20.816406 234.65625 21.566406 C 234.746094 22.757812 234.691406 23.496094 233.9375 24.441406 C 233.21875 25 232.433594 25.019531 231.539062 24.996094 C 230.769531 24.871094 230.386719 24.523438 229.871094 23.960938 C 229.464844 23.257812 229.390625 22.859375 229.421875 22.042969 C 229.664062 21.214844 230 20.753906 230.589844 20.128906 C 231.417969 19.710938 232.3125 19.742188 233.21875 19.886719 Z M 233.21875 19.886719 "/>
</g>
</svg>
