<?xml version="1.0" encoding="UTF-8"?>
<svg version="1.1" xmlns="http://www.w3.org/2000/svg" width="1250" height="313">
<path d="M0 0 C1.26908203 -0.03738281 2.53816406 -0.07476562 3.84570312 -0.11328125 C14.85705577 -0.21497666 22.7721705 2.65094137 32.0625 8.375 C32.48660156 7.96507812 32.91070313 7.55515625 33.34765625 7.1328125 C39.63371757 1.3579254 45.6069984 -0.17131821 54.0859375 -0.0078125 C61.98801034 1.00846458 69.57086441 4.62185796 75.0625 10.375 C80.54373555 17.51119798 83.29796002 23.52166077 83.35302734 32.66210938 C83.35974457 33.36535843 83.36646179 34.06860748 83.37338257 34.79316711 C83.39227314 37.10176793 83.39628166 39.41007686 83.3984375 41.71875 C83.40486984 43.33248003 83.41159852 44.9462089 83.41860962 46.55993652 C83.43055867 49.93565577 83.43429271 53.31127283 83.43310547 56.68701172 C83.432902 61.00462187 83.46024357 65.32157591 83.49464989 69.63903046 C83.51692161 72.96941112 83.52094299 76.29963367 83.51988602 79.63008118 C83.52224004 81.22164682 83.53105246 82.81321694 83.54655075 84.40470886 C83.56622483 86.6329007 83.56036951 88.85967424 83.54833984 91.08789062 C83.55118988 92.35330688 83.55403992 93.61872314 83.55697632 94.92248535 C82.97208131 99.0063181 81.60652733 101.16818846 79.0625 104.375 C75.85464982 106.72742347 72.96600748 106.8434209 69.0625 106.375 C65.09951217 104.24108348 62.63226348 102.61269169 61.0625 98.375 C60.8109436 95.30812073 60.8109436 95.30812073 60.80712891 91.66625977 C60.80350845 91.00071075 60.799888 90.33516174 60.79615784 89.64944458 C60.78927985 88.20843944 60.7867554 86.76740833 60.78810501 85.32638741 C60.78907217 83.04357989 60.77610644 80.76124077 60.75912476 78.47850037 C60.71290693 71.98985399 60.68824542 65.50125655 60.68164062 59.01245117 C60.67662199 55.0394787 60.65235682 51.06699682 60.61631393 47.0941906 C60.60652579 45.58279302 60.60417866 44.07132787 60.60948563 42.55990791 C60.61656812 40.44378446 60.59925353 38.32912035 60.57666016 36.21313477 C60.57381012 35.01052505 60.57096008 33.80791534 60.56802368 32.56886292 C59.96014018 28.72829788 58.82215464 27.07448264 56.0625 24.375 C52.17309061 23.24353545 50.02811354 22.98875459 46.25 24.5 C42.91736417 27.356545 42.16188909 30.1484315 41.8109436 34.47947693 C41.80968475 35.64052444 41.8084259 36.80157196 41.80712891 37.99780273 C41.80350845 38.64238434 41.799888 39.28696594 41.79615784 39.95108032 C41.78929209 41.34350106 41.78675309 42.73594854 41.78810501 44.12838554 C41.78907451 46.33594165 41.77607899 48.5430165 41.75912476 50.75050354 C41.71297761 57.02414256 41.68824904 63.29773015 41.68164062 69.5715332 C41.67661577 73.4159927 41.65232056 77.25994667 41.61631393 81.1042347 C41.60654149 82.56456525 41.60417004 84.02496556 41.60948563 85.48531914 C41.61658613 87.53169393 41.59921754 89.5765695 41.57666016 91.62280273 C41.57381012 92.78464584 41.57096008 93.94648895 41.56802368 95.14353943 C40.86263414 99.65260316 38.8946505 103.03142297 35.1875 105.75 C30.72351668 107.06293627 27.96501637 106.84361427 23.8125 104.6875 C20.81473854 102.16665513 20.17612173 101.04648107 19.0625 97.375 C18.8109436 94.18113708 18.8109436 94.18113708 18.80712891 90.53686523 C18.80350845 89.8695639 18.799888 89.20226257 18.79615784 88.51473999 C18.78929106 87.07320454 18.78675328 85.63164325 18.78810501 84.19009209 C18.78907358 81.90747979 18.77609107 79.62533406 18.75912476 77.3427887 C18.71294085 70.8559219 18.68823444 64.36910577 18.68164062 57.88208008 C18.67662786 53.90795885 18.65239682 49.93432949 18.61631393 45.96037483 C18.60651612 44.44815078 18.60418394 42.93585909 18.60948563 41.42361259 C18.61655192 39.30978566 18.59928842 37.19742823 18.57666016 35.08374023 C18.57381012 33.88192612 18.57096008 32.680112 18.56802368 31.44187927 C17.96391427 27.77690628 16.94311779 26.63670438 14.0625 24.375 C11.22980334 22.95865167 8.58783562 23.0286995 5.4375 22.8125 C4.24898437 22.72871094 3.06046875 22.64492187 1.8359375 22.55859375 C0.46308594 22.46771484 0.46308594 22.46771484 -0.9375 22.375 C-0.93083817 23.31603073 -0.92417633 24.25706146 -0.91731262 25.22660828 C-0.85647368 34.09884842 -0.81151401 42.9710462 -0.78206348 51.84344769 C-0.76641361 56.4047535 -0.74518774 60.96589078 -0.71118164 65.52709961 C-0.67856397 69.92967699 -0.66064188 74.33209237 -0.65286827 78.73478127 C-0.64732908 80.41369998 -0.63651235 82.09260991 -0.62030983 83.77145958 C-0.59850323 86.12477085 -0.59553438 88.47741435 -0.59692383 90.83081055 C-0.586138 91.5234903 -0.57535217 92.21617004 -0.5642395 92.92984009 C-0.59180258 97.24977132 -1.26483337 99.95902743 -3.9375 103.375 C-7.92486252 105.7520815 -10.00489659 106.51726154 -14.625 105.8125 C-17.97488112 104.358778 -19.73342927 103.25724633 -21.9375 100.375 C-23.36620003 96.4620346 -23.08517854 92.32178947 -23.08276367 88.21337891 C-23.08612228 87.39337906 -23.0894809 86.57337921 -23.09294128 85.72853088 C-23.10243507 83.01952598 -23.10439361 80.310583 -23.10546875 77.6015625 C-23.10868244 75.71593195 -23.1120466 73.83030165 -23.11555481 71.94467163 C-23.12154215 67.9920799 -23.12339512 64.03951001 -23.12280273 60.08691406 C-23.12270114 55.02735516 -23.13635246 49.96793666 -23.15357494 44.90841103 C-23.16470491 41.01359415 -23.16672163 37.1188111 -23.16619301 33.22397995 C-23.16737165 31.35890596 -23.17178694 29.49383105 -23.17952538 27.62877274 C-23.18934525 25.01755243 -23.18643933 22.40663557 -23.18041992 19.79541016 C-23.18603943 19.02845322 -23.19165894 18.26149628 -23.19744873 17.47129822 C-23.16501816 11.92247837 -22.6286437 7.39346183 -19 3.0625 C-13.80474115 -1.18816634 -6.36017345 0.06916649 0 0 Z " fill="#FEFEFE" transform="translate(813.9375,123.625)"/>
<path d="M0 0 C1.02206543 -0.01606293 2.04413086 -0.03212585 3.09716797 -0.04867554 C7.78400814 -0.0934742 12.47071 -0.13422362 17.15771484 -0.15722656 C19.6190744 -0.17373272 22.0803871 -0.20095122 24.54150391 -0.23925781 C28.10995082 -0.29445235 31.67727552 -0.31597033 35.24609375 -0.33056641 C36.33092041 -0.35323578 37.41574707 -0.37590515 38.53344727 -0.39926147 C48.67070256 -0.37167432 57.17599727 2.46412261 64.80859375 9.25537109 C73.29189776 18.58633731 74.64685587 28.85912983 74.37109375 41.06787109 C74.37496094 42.98599609 74.37496094 42.98599609 74.37890625 44.94287109 C74.26451976 55.90109641 74.26451976 55.90109641 70.87109375 61.19287109 C66.81967158 64.32147622 63.27700062 64.61052601 58.3269043 64.53344727 C57.21390205 64.53410439 57.21390205 64.53410439 56.07841492 64.53477478 C53.63794182 64.532693 51.19816485 64.5093916 48.7578125 64.48583984 C47.06102371 64.4802417 45.36423007 64.47597263 43.66743469 64.47297668 C39.21050532 64.46154509 34.75387117 64.43209253 30.29705811 64.39886475 C25.7456054 64.36812745 21.1941048 64.35446354 16.64257812 64.33935547 C7.71862059 64.30722112 -1.20511824 64.25604523 -10.12890625 64.19287109 C-10.01434944 66.11019028 -9.88684367 68.02673859 -9.75390625 69.94287109 C-9.68429687 71.01021484 -9.6146875 72.07755859 -9.54296875 73.17724609 C-9.15036715 76.03657098 -8.68677164 77.79237327 -7.12890625 80.19287109 C-1.85031286 83.90304609 3.36688934 83.60284178 9.5625 83.56396484 C11.66211107 83.58133972 13.76172041 83.59892418 15.86132812 83.61669922 C19.15522355 83.62678734 22.44900965 83.63036313 25.74291992 83.62866211 C28.93310958 83.63222976 32.12245967 83.65955508 35.3125 83.68896484 C36.29593887 83.68078232 37.27937775 83.67259979 38.2926178 83.66416931 C42.67379913 83.71189627 45.16366403 83.75052384 48.94506836 86.11499023 C52.27063681 89.70275967 52.88853315 91.09418905 52.80859375 96.13037109 C52.15124297 100.42720059 50.26395837 102.46202884 46.87109375 105.19287109 C44.49476268 106.38103663 43.03201731 106.32582656 40.38061523 106.33813477 C39.44881943 106.34451462 38.51702362 106.35089447 37.55699158 106.35746765 C36.54560623 106.35858047 35.53422089 106.3596933 34.4921875 106.36083984 C33.4509523 106.36416824 32.4097171 106.36749664 31.33692932 106.3709259 C29.12688642 106.37599772 26.91683583 106.37833415 24.70678711 106.37817383 C21.34671097 106.38034645 17.98697052 106.39846104 14.62695312 106.41748047 C12.4778657 106.42041722 10.32877672 106.42240013 8.1796875 106.42333984 C7.18247177 106.43052536 6.18525604 106.43771088 5.15782166 106.44511414 C-6.30734562 106.40813383 -14.70062879 104.33461681 -23.14453125 96.26708984 C-31.41260252 87.32159257 -32.28363304 78.21257602 -32.296875 66.42333984 C-32.3002034 65.38776443 -32.3035318 64.35218903 -32.30696106 63.28523254 C-32.31201192 61.09909508 -32.31436996 58.91294994 -32.31420898 56.72680664 C-32.31639191 53.40221284 -32.33455768 50.07795299 -32.35351562 46.75341797 C-32.35645073 44.62255972 -32.35843474 42.49169991 -32.359375 40.36083984 C-32.36656052 39.37617233 -32.37374603 38.39150482 -32.38114929 37.3769989 C-32.34260154 25.58763388 -29.9095116 17.20014375 -21.87890625 8.44287109 C-15.8917868 2.70466908 -8.18221745 0.11737993 0 0 Z M-7.25805664 25.11108398 C-11.48639655 32.0762849 -10.12890625 30.87579347 -10.12890625 42.19287109 C10.33109375 42.19287109 30.79109375 42.19287109 51.87109375 42.19287109 C52.90008526 30.93603163 52.90008526 30.93603163 48.87109375 25.19287109 C45.95471916 22.42779698 43.98010118 21.81086944 39.99829102 21.75708008 C39.03371475 21.73794052 38.06913849 21.71880096 37.07533264 21.69908142 C36.03984787 21.69574295 35.0043631 21.69240448 33.9375 21.68896484 C32.86741196 21.67897964 31.79732391 21.66899445 30.69480896 21.65870667 C28.43289048 21.6435267 26.17090491 21.63648083 23.90893555 21.63696289 C20.44923288 21.63040076 16.99239809 21.57591252 13.53320312 21.51904297 C11.33464523 21.51024085 9.13607371 21.50428667 6.9375 21.50146484 C5.90403946 21.47990829 4.87057892 21.45835175 3.80580139 21.43614197 C-2.48417511 21.43084716 -2.48417511 21.43084716 -7.25805664 25.11108398 Z " fill="#FEFEFE" transform="translate(446.12890625,122.80712890625)"/>
<path d="M0 0 C1.52006905 -0.0049926 1.52006905 -0.0049926 3.07084656 -0.01008606 C5.20990548 -0.01513632 7.34897223 -0.01749497 9.48803711 -0.01733398 C12.74020546 -0.01951681 15.99203236 -0.03768292 19.24414062 -0.05664062 C21.32942593 -0.05957577 23.41471284 -0.06155976 25.5 -0.0625 C26.46279373 -0.06968552 27.42558746 -0.07687103 28.41755676 -0.08427429 C38.74685002 -0.04976632 47.15507409 1.73829297 55.44921875 8.16796875 C64.10388526 16.95253645 66.6177043 26.76595602 66.58203125 38.8828125 C66.58298798 39.61560928 66.5839447 40.34840607 66.58493042 41.10340881 C66.58560838 42.6523548 66.58378096 44.20130368 66.57958984 45.75024414 C66.57430582 48.06728893 66.57951158 50.38413362 66.5859375 52.70117188 C66.60524038 86.68968743 66.60524038 86.68968743 55.73828125 98.1875 C49.54378121 103.54690532 42.39717951 106.26783899 34.27270508 106.32910156 C32.72508232 106.34351288 32.72508232 106.34351288 31.14619446 106.35821533 C30.03576279 106.36246521 28.92533112 106.36671509 27.78125 106.37109375 C26.63186447 106.37679382 25.48247894 106.3824939 24.29826355 106.3883667 C21.86478596 106.39781209 19.4312956 106.40434885 16.99780273 106.40820312 C13.29322676 106.41788639 9.58921091 106.44890588 5.88476562 106.48046875 C3.51693037 106.4870014 1.14909115 106.49225084 -1.21875 106.49609375 C-2.31906052 106.50844055 -3.41937103 106.52078735 -4.55302429 106.5335083 C-15.53785708 106.50203692 -23.59937659 103.92507217 -31.55078125 96.16796875 C-38.68819109 87.39871521 -39.86556823 79.72647651 -39.88671875 68.6484375 C-39.89337555 67.43529373 -39.90003235 66.22214996 -39.90689087 64.97224426 C-39.91700052 62.40949008 -39.92170841 59.84670965 -39.92138672 57.28393555 C-39.92575426 53.37960021 -39.96207904 49.47640074 -40 45.57226562 C-40.00586971 43.07682676 -40.00983807 40.58138256 -40.01171875 38.0859375 C-40.02608978 36.92627975 -40.04046082 35.76662201 -40.05526733 34.57182312 C-40.0011494 24.8875021 -37.34547779 16.32208249 -30.55078125 9.16796875 C-20.87141318 1.51615501 -12.06994243 0.01386333 0 0 Z M-16.15296936 26.97123718 C-17.7977408 29.55607808 -17.94045662 30.99960452 -17.97070312 34.04077148 C-17.98661499 35.00534775 -18.00252686 35.96992401 -18.0189209 36.96372986 C-18.01912231 37.99921463 -18.01932373 39.0346994 -18.01953125 40.1015625 C-18.02714478 41.17165054 -18.0347583 42.24173859 -18.04260254 43.34425354 C-18.05340275 45.60618762 -18.05625698 47.86817156 -18.05175781 50.13012695 C-18.05078572 53.58955097 -18.09240599 57.04675573 -18.13671875 60.50585938 C-18.14192593 62.70442246 -18.14461394 64.90299325 -18.14453125 67.1015625 C-18.16092651 68.13502304 -18.17732178 69.16848358 -18.19421387 70.23326111 C-18.15250582 76.22026882 -18.15250582 76.22026882 -15.13867188 81.29711914 C-11.74546606 83.75015086 -10.11215615 84.2963479 -5.99682617 84.3449707 C-5.0521196 84.35780594 -4.10741302 84.37064117 -3.13407898 84.38386536 C-1.59817863 84.39494576 -1.59817863 84.39494576 -0.03125 84.40625 C1.01947189 84.41432175 2.07019379 84.42239349 3.15275574 84.43070984 C5.37957099 84.4445569 7.60640752 84.45527626 9.83325195 84.46313477 C13.23755151 84.48034656 16.64087985 84.52422788 20.04492188 84.56835938 C22.2070241 84.5784862 24.36913459 84.58700233 26.53125 84.59375 C27.54911087 84.61125809 28.56697174 84.62876617 29.61567688 84.64680481 C33.89508774 84.63368367 36.69683087 84.57441321 40.5065918 82.51635742 C44.961449 77.13100221 44.75701098 71.30055693 44.75 64.640625 C44.75642769 63.27991127 44.75642769 63.27991127 44.76298523 61.89170837 C44.76870942 59.97965324 44.76924293 58.06757633 44.76489258 56.15551758 C44.76173264 53.24327163 44.78521553 50.33204246 44.81054688 47.41992188 C44.81282019 45.55599086 44.81352321 43.69205712 44.8125 41.828125 C44.82170975 40.96437759 44.83091949 40.10063019 44.84040833 39.21070862 C44.79932302 33.79551948 44.26637152 29.85802498 41.44921875 25.16796875 C36.46025428 21.42110386 31.17932511 21.73077648 25.1953125 21.76953125 C24.21683853 21.76666107 23.23836456 21.76379089 22.23023987 21.76083374 C20.16854267 21.75879837 18.10682593 21.76429125 16.04516602 21.77685547 C12.8936035 21.79293363 9.74332003 21.77697966 6.59179688 21.7578125 C4.58463259 21.75979469 2.57746911 21.76363785 0.5703125 21.76953125 C-0.36937881 21.76345856 -1.30907013 21.75738586 -2.27723694 21.75112915 C-8.21550362 21.8148556 -12.02979709 22.33059208 -16.15296936 26.97123718 Z " fill="#FEFEFE" transform="translate(202.55078125,121.83203125)"/>
<path d="M0 0 C1.60284348 -0.01925285 1.60284348 -0.01925285 3.23806763 -0.03889465 C4.3891098 -0.04628159 5.54015198 -0.05366852 6.72607422 -0.0612793 C7.91748016 -0.06935104 9.10888611 -0.07742279 10.33639526 -0.08573914 C12.85982818 -0.09956947 15.38327973 -0.11029632 17.90673828 -0.11816406 C21.7453207 -0.13533947 25.58303339 -0.17923281 29.42138672 -0.22338867 C31.87710957 -0.23351939 34.33283973 -0.24203431 36.78857422 -0.2487793 C37.92747101 -0.26628738 39.0663678 -0.28379547 40.23977661 -0.30183411 C50.4978635 -0.27423741 58.3968749 2.22200896 65.90185547 9.31762695 C71.67779611 15.44089587 74.87861194 21.31784744 74.94628906 29.94775391 C74.95904877 31.05943436 74.97180847 32.17111481 74.98495483 33.31648254 C74.98718048 34.50408676 74.98940613 35.69169098 74.99169922 36.9152832 C75.00168442 38.76829292 75.00168442 38.76829292 75.01187134 40.65873718 C75.02198182 43.26857009 75.02668886 45.87842877 75.02636719 48.48828125 C75.02612437 52.46490651 75.06706033 56.44079294 75.10498047 60.41723633 C75.11085013 62.95824818 75.11481852 65.49926527 75.11669922 68.0402832 C75.13107025 69.22181473 75.14544128 70.40334625 75.1602478 71.62068176 C75.09764106 83.02776389 71.64946846 90.18329522 63.65576172 98.17700195 C56.0425934 105.39975139 47.72787709 105.63552444 37.75732422 105.6105957 C36.52718597 105.61583755 35.29704773 105.62107941 34.02963257 105.6264801 C31.43594108 105.63288359 28.84222049 105.63158509 26.24853516 105.62304688 C22.30041259 105.61454427 18.35374137 105.64331345 14.40576172 105.67504883 C11.87711632 105.67666132 9.34846837 105.6760824 6.81982422 105.6730957 C5.06468002 105.68994667 5.06468002 105.68994667 3.27407837 105.70713806 C-5.22188417 105.63563279 -12.22983504 104.225557 -19.14892578 99.09887695 C-25.6642705 92.26391155 -30.42090736 85.61860014 -30.52124023 75.85449219 C-30.53407547 74.76583359 -30.54691071 73.67717499 -30.56013489 72.55552673 C-30.56752182 71.37744949 -30.57490875 70.19937225 -30.58251953 68.9855957 C-30.59059128 67.77057877 -30.59866302 66.55556183 -30.60697937 65.3037262 C-30.62082263 62.72723823 -30.63154369 60.15073191 -30.6394043 57.57421875 C-30.65656387 53.65434381 -30.70044367 49.7353239 -30.74462891 45.81567383 C-30.75476067 43.30982064 -30.76327526 40.8039603 -30.77001953 38.2980957 C-30.78752762 37.13418808 -30.80503571 35.97028046 -30.82307434 34.77110291 C-30.79287601 23.30597662 -27.62180949 15.60276449 -19.72314453 7.3137207 C-13.95343808 2.13140637 -7.65100305 0.08029434 0 0 Z M-7.00888062 25.98112488 C-8.57823749 28.56179287 -8.72913271 30.04816454 -8.74829102 33.04980469 C-8.76097519 34.01438095 -8.77365936 34.97895721 -8.78672791 35.97276306 C-8.78379227 37.00824783 -8.78085663 38.0437326 -8.77783203 39.1105957 C-8.78307388 40.18068375 -8.78831573 41.25077179 -8.79371643 42.35328674 C-8.80013683 44.61523573 -8.79879943 46.87721809 -8.7902832 49.13916016 C-8.78177801 52.59834331 -8.81052844 56.05587276 -8.84228516 59.51489258 C-8.84389738 61.71345979 -8.84331923 63.91202993 -8.84033203 66.1105957 C-8.85156601 67.14405624 -8.86279999 68.17751678 -8.87437439 69.24229431 C-8.83263131 73.54846338 -8.75758319 76.41155519 -6.68823242 80.24365234 C-1.35759868 84.64041191 4.37762046 84.48489686 10.96435547 84.4777832 C11.84930191 84.48206833 12.73424835 84.48635345 13.64601135 84.49076843 C15.51098783 84.49649171 17.37598662 84.49702681 19.2409668 84.49267578 C22.08079408 84.48951583 24.91957861 84.51299978 27.75927734 84.53833008 C29.57763541 84.54060341 31.39599627 84.54130641 33.21435547 84.5402832 C34.0562291 84.54949295 34.89810272 84.5587027 35.76548767 84.56819153 C41.14059633 84.52639095 44.9298157 83.81246093 49.65576172 81.17700195 C52.21674086 78.36240307 53.03662939 76.4874161 53.13574219 72.703125 C53.16521942 71.82508713 53.19469666 70.94704926 53.22506714 70.04240417 C53.24876877 68.62983086 53.24876877 68.62983086 53.27294922 67.1887207 C53.29801544 66.21216019 53.32308167 65.23559967 53.34890747 64.22944641 C53.39784846 62.16435288 53.4394061 60.09907306 53.47412109 58.03369141 C53.53038051 54.88583154 53.61879606 51.74002244 53.71044922 48.59301758 C53.75406418 46.58329329 53.79579225 44.57352699 53.83544922 42.5637207 C53.86339569 41.62807785 53.89134216 40.692435 53.9201355 39.72843933 C53.98738721 34.07868627 53.48455486 30.12004192 50.65576172 25.17700195 C47.83781919 22.61967485 45.96712715 21.7961592 42.18188477 21.69702148 C41.30384689 21.66754425 40.42580902 21.63806702 39.52116394 21.60769653 C38.10859062 21.5839949 38.10859062 21.5839949 36.66748047 21.55981445 C35.20263969 21.52221512 35.20263969 21.52221512 33.70820618 21.4838562 C31.64311265 21.43491521 29.57783282 21.39335758 27.51245117 21.35864258 C24.3645913 21.30238316 21.2187822 21.21396761 18.07177734 21.12231445 C16.06205306 21.07869949 14.05228675 21.03697142 12.04248047 20.99731445 C11.10683762 20.96936798 10.17119476 20.94142151 9.2071991 20.91262817 C2.99974884 20.83873792 -2.5352901 21.13269166 -7.00888062 25.98112488 Z " fill="#FEFEFE" transform="translate(696.34423828125,123.822998046875)"/>
<path d="M0 0 C3.30554275 1.86835025 4.64936217 3.1649262 6.11862183 6.66409302 C7.11123536 10.42101204 7.26671285 13.89704197 7.22705078 17.74951172 C7.22734283 18.50141281 7.22763489 19.2533139 7.22793579 20.02799988 C7.22655052 22.49534945 7.21102748 24.96239115 7.1953125 27.4296875 C7.19157951 29.14746943 7.18873389 30.8652535 7.18673706 32.58303833 C7.17912311 37.09084006 7.15949395 41.59851167 7.1373291 46.10626221 C7.11682235 50.71144857 7.10772503 55.31665608 7.09765625 59.921875 C7.07624586 68.94797365 7.04213705 77.97397598 7 87 C8.01673798 85.97449287 8.01673798 85.97449287 9.05401611 84.92826843 C9.94788025 84.02985733 10.84174438 83.13144623 11.76269531 82.20581055 C12.64677063 81.31588913 13.53084595 80.42596771 14.44171143 79.50907898 C16.50537403 77.48511166 18.58761724 75.56732571 20.796875 73.70703125 C24.48916889 70.5426055 27.90918239 67.15235079 31.328125 63.69921875 C31.8893103 63.13252472 32.45049561 62.56583069 33.02868652 61.98196411 C35.36616829 59.6167578 37.69990763 57.24793302 40.02929688 54.87475586 C41.74952271 53.12435479 43.47589812 51.38020785 45.203125 49.63671875 C45.72610168 49.10028244 46.24907837 48.56384613 46.78790283 48.01115417 C50.53339594 44.24006501 53.06515453 42.29205215 58.3125 41.5 C62.58962489 42.07994914 64.59030014 43.13917814 67.66015625 46.09765625 C69.66972882 48.95089777 70.01070627 51.16632889 69.62426758 54.6081543 C67.49967227 62.74842034 57.37725802 69.77638645 51.49267578 75.63769531 C49.86764019 77.25733538 48.24806535 78.88229993 46.62890625 80.5078125 C45.58365408 81.55240438 44.53809201 82.59668628 43.4921875 83.640625 C42.77638016 84.35946869 42.77638016 84.35946869 42.04611206 85.09283447 C39.17721107 87.94196998 36.19994764 90.52958537 33 93 C34.3197372 95.92731096 35.73647787 97.97641007 38.02514648 100.22045898 C38.63595566 100.82466171 39.24676483 101.42886444 39.87608337 102.05137634 C40.5344368 102.69313309 41.19279022 103.33488983 41.87109375 103.99609375 C42.54922623 104.66665298 43.2273587 105.33721222 43.92604065 106.02809143 C46.82288879 108.8922894 49.73139155 111.74454739 52.63891602 114.59790039 C54.76207917 116.68484754 56.87919141 118.77779923 58.99609375 120.87109375 C59.65242294 121.51082626 60.30875214 122.15055878 60.98497009 122.80967712 C65.18457938 126.9640971 68.61994382 130.38711379 69.5 136.4375 C68.83624442 141.16675851 67.34318209 142.65681791 64 146 C60.68701793 147.65649103 57.55655675 147.72724101 54 147 C45.40886354 141.50691023 38.16866816 132.27740075 31 125.0625 C29.63955682 123.69703255 28.27888169 122.33179614 26.91796875 120.96679688 C23.6092969 117.64719114 20.30378678 114.32446727 17 111 C15.8944811 111.93590504 14.79064547 112.87379858 13.6875 113.8125 C13.07261719 114.33457031 12.45773437 114.85664063 11.82421875 115.39453125 C8.31687094 118.19034752 8.31687094 118.19034752 6.61523438 122.09716797 C6.60814453 122.88752441 6.60105469 123.67788086 6.59375 124.4921875 C6.57183594 125.36230469 6.54992187 126.23242188 6.52734375 127.12890625 C6.51832031 128.03511719 6.50929688 128.94132813 6.5 129.875 C6.39025831 140.80213673 6.39025831 140.80213673 3 145 C-0.00943932 147.34067502 -3.28075809 147.42436289 -7.03515625 147.3125 C-10.2861665 146.79544072 -11.84048537 145.41357518 -14 143 C-16.47729341 137.50842294 -16.27224274 132.19545034 -16.23046875 126.29296875 C-16.23059967 125.21128418 -16.23073059 124.12959961 -16.23086548 123.01513672 C-16.22765534 119.40579994 -16.20864204 115.79677381 -16.1875 112.1875 C-16.17719203 109.64949599 -16.16702249 107.11149141 -16.15698242 104.57348633 C-16.13184082 99.05932925 -16.09720326 93.54531938 -16.05761719 88.03125 C-16.01278786 81.75259903 -15.98740838 75.47410562 -15.97363281 69.1953125 C-15.95680892 61.65837586 -15.92069295 54.12179616 -15.86309147 46.58505726 C-15.83207754 42.48033514 -15.80899156 38.37593305 -15.80526733 34.27108765 C-15.8010792 30.38042038 -15.77290013 26.49063891 -15.72675705 22.60025024 C-15.71374648 21.16087995 -15.70923687 19.7214043 -15.71379471 18.28198242 C-15.71868218 16.30404084 -15.68984755 14.32610229 -15.65942383 12.34838867 C-15.65276199 11.23759445 -15.64610016 10.12680023 -15.63923645 8.98234558 C-14.7969558 5.05270113 -13.03426519 3.54331671 -10 1 C-6.78892113 -0.60553944 -3.48329272 -0.47469056 0 0 Z " fill="#FEFEFE" transform="translate(325,81)"/>
<path d="M0 0 C1.08212769 -0.01929062 2.16425537 -0.03858124 3.2791748 -0.05845642 C8.24076745 -0.11655525 13.20221949 -0.16551071 18.1640625 -0.19628906 C20.7709685 -0.21781902 23.3778032 -0.25186139 25.984375 -0.29882812 C29.76139313 -0.36620637 33.53691675 -0.39335576 37.31445312 -0.41235352 C39.04012512 -0.4540995 39.04012512 -0.4540995 40.80065918 -0.49668884 C51.21443849 -0.47059662 59.32114783 3.04163134 67.09570312 9.95874023 C72.79566366 16.16826065 75.31790865 23.87490591 75.59570312 32.20874023 C74.6536904 36.66189128 73.34394726 39.54551414 69.59570312 42.20874023 C65.6161663 43.42679553 62.64515348 43.6518415 58.78320312 42.02124023 C54.10659042 38.14633256 52.91259495 34.30140101 51.53710938 28.54858398 C50.36860303 25.64428813 49.24484381 24.83665451 46.59570312 23.20874023 C44.25681623 22.7461795 44.25681623 22.7461795 41.72290039 22.78881836 C40.75832413 22.77290649 39.79374786 22.75699463 38.79994202 22.74060059 C37.76445724 22.74039917 36.72897247 22.74019775 35.66210938 22.73999023 C34.59202133 22.73237671 33.52193329 22.72476318 32.41941833 22.71691895 C30.15748426 22.70611873 27.89550031 22.70326451 25.63354492 22.70776367 C22.17412091 22.70873576 18.71691614 22.6671155 15.2578125 22.62280273 C13.05924942 22.61759555 10.86067862 22.61490754 8.66210938 22.61499023 C7.62864883 22.59859497 6.59518829 22.58219971 5.53041077 22.56530762 C1.08094777 22.60809247 -1.6685222 22.77718612 -5.55444336 25.05639648 C-8.30031756 29.73565315 -8.12079391 33.90220666 -8.06835938 39.23999023 C-8.07314301 40.30866333 -8.07792664 41.37733643 -8.08285522 42.47839355 C-8.08625269 44.73439 -8.07706118 46.99043578 -8.05615234 49.24633789 C-8.02938667 52.69716288 -8.05590759 56.14473503 -8.08789062 59.59545898 C-8.0845865 61.78947657 -8.07818022 63.98349214 -8.06835938 66.17749023 C-8.08354111 67.72297546 -8.08354111 67.72297546 -8.09902954 69.29968262 C-8.02181118 74.02515003 -7.96588244 76.44240869 -5.11279297 80.33569336 C-1.46793615 82.85627579 1.4252936 83.33074925 5.79418945 83.35400391 C6.61216507 83.36038376 7.43014069 83.36676361 8.27290344 83.37333679 C9.58704475 83.37500603 9.58704475 83.37500603 10.92773438 83.37670898 C11.83770676 83.38003738 12.74767914 83.38336578 13.68522644 83.38679504 C15.60923763 83.391853 17.53325756 83.39420372 19.45727539 83.39404297 C22.38703036 83.39622447 25.31640561 83.41437846 28.24609375 83.43334961 C30.11913934 83.43628484 31.99218672 83.43826877 33.86523438 83.43920898 C35.17026665 83.44998726 35.17026665 83.44998726 36.50166321 83.46098328 C41.58798869 83.44207086 45.77510718 82.85169049 50.59570312 81.20874023 C50.83353516 79.99637695 50.83353516 79.99637695 51.07617188 78.75952148 C53.4114479 68.06369925 53.4114479 68.06369925 58.59570312 64.20874023 C61.62007652 62.69655354 64.25811846 63.03610655 67.59570312 63.20874023 C71.09296975 64.37449578 72.66404521 66.10638056 74.59570312 69.20874023 C75.83960816 76.95232926 74.52397648 83.51516918 70.59570312 90.20874023 C70.24507812 90.83522461 69.89445312 91.46170898 69.53320312 92.10717773 C65.16863307 99.04805651 58.32679779 102.95097685 50.59570312 105.20874023 C47.7640686 105.46943665 47.7640686 105.46943665 44.80908203 105.48339844 C43.69417389 105.49293045 42.57926575 105.50246246 41.43057251 105.51228333 C40.23983124 105.51137192 39.04908997 105.51046051 37.82226562 105.50952148 C36.58455414 105.51380661 35.34684265 105.51809174 34.07162476 105.52250671 C30.79001678 105.52970555 27.50859305 105.52663628 24.22698975 105.52093506 C20.90711348 105.52144004 17.58737787 105.54896099 14.26757812 105.57006836 C11.72330822 105.5723418 9.17903634 105.57304464 6.63476562 105.57202148 C5.44807281 105.58123123 4.26138 105.59044098 3.03872681 105.59992981 C-5.90133638 105.55026413 -12.62054202 104.39335469 -19.52929688 98.27124023 C-20.70878906 97.26770508 -20.70878906 97.26770508 -21.91210938 96.24389648 C-29.02927084 87.57613088 -31.31058705 79.18023189 -31.13085938 68.13842773 C-31.13185638 66.93614532 -31.13285339 65.73386292 -31.13388062 64.49514771 C-31.12923144 61.97236463 -31.10996671 59.44956944 -31.07666016 56.92700195 C-31.02933052 53.08647006 -31.03557908 49.24871022 -31.04882812 45.40795898 C-31.03767618 42.94309885 -31.02345742 40.47825028 -31.00585938 38.01342773 C-31.00768219 36.8777536 -31.009505 35.74207947 -31.01138306 34.57199097 C-30.82329484 23.90004648 -27.99442926 15.96981462 -20.62695312 8.18920898 C-14.47788707 2.71016419 -8.16821716 0.13654403 0 0 Z " fill="#FEFEFE" transform="translate(1073.404296875,124.791259765625)"/>
<path d="M0 0 C1.2220665 0.00187317 2.444133 0.00374634 3.70323181 0.00567627 C6.28615043 0.01238566 8.86905909 0.02627789 11.4519043 0.046875 C15.36451905 0.07782579 19.27672841 0.08783246 23.18945312 0.09375 C25.70964022 0.10293024 28.2298233 0.11330923 30.75 0.125 C32.47888206 0.13137482 32.47888206 0.13137482 34.24269104 0.13787842 C60.97000427 0.36765612 60.97000427 0.36765612 71.58984375 7.515625 C79.97033442 16.08658136 83.44460999 24.94668813 83.48510742 36.88085938 C83.49148727 38.16238892 83.49786713 39.44391846 83.50444031 40.76428223 C83.50596894 42.1501461 83.50708293 43.53601048 83.5078125 44.921875 C83.51102953 46.35624219 83.51439393 47.79060907 83.51789856 49.22497559 C83.5238696 52.22404745 83.52574045 55.22309058 83.52514648 58.22216797 C83.52504475 62.05531047 83.53871732 65.8882682 83.55591869 69.72136688 C83.56706159 72.68114054 83.56906502 75.64086975 83.56853676 78.60066223 C83.56971263 80.01358174 83.57411229 81.42650254 83.58186913 82.83940125 C83.59171878 84.81803988 83.58751393 86.79673318 83.58276367 88.77539062 C83.58418869 89.89868774 83.58561371 91.02198486 83.58708191 92.17932129 C83.23029826 96.72328686 82.34110783 100.1704134 79.33984375 103.640625 C76.73922749 105.83489497 75.5790189 106.29529704 72.15234375 106.765625 C67.82063937 106.26854417 65.9933996 105.48480334 62.81973267 102.6015625 C59.49777355 97.49829674 60.42319034 90.75429519 60.5078125 84.859375 C60.50350105 83.33531418 60.49582308 81.81125951 60.48493958 80.28723145 C60.46405918 76.28441207 60.48303014 72.28282065 60.51220703 68.28009033 C60.5517483 61.87488363 60.52860664 55.46956114 60.50921059 49.0643158 C60.50783542 46.83405188 60.52218342 44.60433492 60.53935242 42.37414551 C60.54236145 40.99877984 60.54512596 39.6234136 60.54760742 38.24804688 C60.55539719 37.05369019 60.56318695 35.8593335 60.57121277 34.62878418 C60.32947163 31.18015868 59.69829482 28.50272142 58.33984375 25.328125 C52.98913542 22.27420905 46.16276427 22.97551314 40.16015625 22.9140625 C38.99225555 22.89469635 37.82435486 22.8753302 36.62106323 22.8553772 C32.90239697 22.79574839 29.18369947 22.74926226 25.46484375 22.703125 C22.93878882 22.66492991 20.4127467 22.62587729 17.88671875 22.5859375 C11.70454106 22.49006047 5.52228579 22.40496415 -0.66015625 22.328125 C-0.65349442 23.23965836 -0.64683258 24.15119171 -0.63996887 25.09034729 C-0.57976035 33.6970829 -0.53413235 42.30374737 -0.50471973 50.91064548 C-0.48908986 55.33513464 -0.46790076 59.7594492 -0.43383789 64.18383789 C-0.40114856 68.45674789 -0.38328309 72.72949036 -0.37552452 77.00251579 C-0.36999815 78.62954278 -0.35920651 80.256561 -0.34296608 81.88351631 C-0.321064 84.16936911 -0.31819457 86.45453702 -0.31958008 88.74047852 C-0.31291824 90.03953629 -0.30625641 91.33859406 -0.2993927 92.67701721 C-0.79897723 97.73306289 -1.94770766 101.89337077 -5.97265625 105.265625 C-9.22226754 106.55035505 -11.19051265 106.82378837 -14.66015625 106.328125 C-18.31797805 104.28818592 -20.32961799 102.82393238 -22.66015625 99.328125 C-22.86020628 96.46036656 -22.94346639 93.68947969 -22.93481445 90.82104492 C-22.93992538 89.95242325 -22.94503632 89.08380157 -22.95030212 88.18885803 C-22.96422281 85.31203352 -22.96323915 82.43544799 -22.9609375 79.55859375 C-22.96482378 77.55943208 -22.96915831 75.56027123 -22.97392273 73.56111145 C-22.98139078 69.36712979 -22.98108994 65.17323229 -22.97583008 60.97924805 C-22.97004226 55.60906621 -22.98694704 50.23923004 -23.01017475 44.86910534 C-23.02492162 40.73836762 -23.02578235 36.60771289 -23.02266502 32.47695351 C-23.023178 30.49744292 -23.0284114 28.51792767 -23.03847694 26.53844261 C-23.05083896 23.76653125 -23.04405044 20.99528964 -23.0324707 18.22338867 C-23.04393631 17.00046616 -23.04393631 17.00046616 -23.05563354 15.75283813 C-23.01084282 10.89219189 -22.37798596 7.52509829 -19.66015625 3.328125 C-13.53574514 -0.59339795 -7.08249294 -0.07494799 0 0 Z " fill="#FEFEFE" transform="translate(562.66015625,122.671875)"/>
<path d="M0 0 C2.58297781 2.18991597 4.48415844 3.96831688 6 7 C6.08658569 9.55362604 6.11562516 12.0795442 6.09765625 14.6328125 C6.0962413 15.38464813 6.09482635 16.13648376 6.09336853 16.91110229 C6.08776465 19.3157751 6.07521157 21.72035527 6.0625 24.125 C6.0574855 25.75390491 6.0529225 27.38281127 6.04882812 29.01171875 C6.03779397 33.00784827 6.02052679 37.00390842 6 41 C6.99854004 40.97905273 7.99708008 40.95810547 9.02587891 40.93652344 C12.74936443 40.863833 16.4727879 40.8180958 20.19677734 40.78027344 C21.80495774 40.76022373 23.41306583 40.73297636 25.02099609 40.69824219 C27.3397002 40.64942736 29.65743625 40.62696572 31.9765625 40.609375 C32.68930328 40.58872986 33.40204407 40.56808472 34.13638306 40.54681396 C39.234203 40.54454984 42.08152379 41.79041243 46 45 C47.91303463 48.0774905 48.00253398 49.85809708 47.9375 53.5 C46.82276962 57.66166007 45.28026327 59.27978168 42 62 C38.93405406 63.53297297 35.72888147 63.12131455 32.3671875 63.09765625 C31.23943405 63.09553383 31.23943405 63.09553383 30.08889771 63.09336853 C27.6842249 63.08776465 25.27964473 63.07521157 22.875 63.0625 C21.24609509 63.0574855 19.61718873 63.0529225 17.98828125 63.04882812 C13.99215173 63.03779397 9.99609158 63.02052679 6 63 C6.016273 70.74174974 6.07104936 78.48254129 6.15258789 86.22387695 C6.17578322 88.85727729 6.19016716 91.4907706 6.19555664 94.12426758 C6.20483428 97.91025843 6.24580377 101.69478375 6.29296875 105.48046875 C6.2890361 106.65772018 6.28510345 107.83497162 6.28105164 109.04789734 C6.33260049 115.58603575 6.33260049 115.58603575 9.35668945 121.2199707 C13.29846779 123.87439999 16.1591431 124.11906795 20.8046875 124.140625 C21.94550781 124.15996094 23.08632812 124.17929688 24.26171875 124.19921875 C26.66259252 124.23296076 29.06373431 124.25129351 31.46484375 124.25390625 C40.22874467 124.44163355 40.22874467 124.44163355 44.2265625 127.3359375 C46.42351306 130.63620244 47.45592917 133.05548649 48 137 C46.89120079 140.91340899 46.04322878 143.2178057 42.75878906 145.68041992 C39.57134525 147.20503353 37.44252275 147.37329847 33.921875 147.36328125 C32.17970703 147.36231445 32.17970703 147.36231445 30.40234375 147.36132812 C29.19707031 147.34521484 27.99179688 147.32910156 26.75 147.3125 C25.56019531 147.31572266 24.37039062 147.31894531 23.14453125 147.32226562 C10.55149919 147.24573339 1.83886128 145.37337068 -7.6875 136.9375 C-15.5502984 128.43370405 -16.72604835 118.2589392 -16.48828125 107.140625 C-16.48120651 105.87023376 -16.47413177 104.59984253 -16.46684265 103.29095459 C-16.44379515 99.95634705 -16.39909564 96.62354196 -16.34332275 93.28942871 C-16.29164637 89.87019195 -16.26922683 86.45076691 -16.24414062 83.03125 C-16.18933584 76.35368066 -16.10590929 69.67694405 -16 63 C-16.73605469 63.02320313 -17.47210938 63.04640625 -18.23046875 63.0703125 C-19.69419922 63.09738281 -19.69419922 63.09738281 -21.1875 63.125 C-22.15042969 63.14820313 -23.11335938 63.17140625 -24.10546875 63.1953125 C-28.18982631 62.91971482 -30.9925943 61.75555428 -34.25 59.3125 C-36.64237318 56.15114972 -36.93199551 53.94426023 -37 50 C-35.46199251 45.79071635 -33.89287566 43.22914249 -30 41 C-26.546875 40.70703125 -26.546875 40.70703125 -22.75 40.8125 C-21.48671875 40.83957031 -20.2234375 40.86664063 -18.921875 40.89453125 C-17.95765625 40.92933594 -16.9934375 40.96414062 -16 41 C-16.01571045 40.03175293 -16.0314209 39.06350586 -16.04760742 38.06591797 C-16.10213985 34.45418706 -16.13643419 30.84249215 -16.16479492 27.23046875 C-16.17982869 25.67083606 -16.20026135 24.11124528 -16.22631836 22.55175781 C-16.26294211 20.30262884 -16.27978021 18.05406153 -16.29296875 15.8046875 C-16.30845261 15.1138205 -16.32393646 14.42295349 -16.33988953 13.71115112 C-16.34148342 9.06697884 -15.46789511 5.93012205 -13 2 C-8.47609191 -1.18729888 -5.29441691 -1.54019401 0 0 Z " fill="#FEFEFE" transform="translate(95,81)"/>
<path d="M0 0 C1.28680664 -0.00193359 1.28680664 -0.00193359 2.59960938 -0.00390625 C3.48841797 -0.00003906 4.37722656 0.00382812 5.29296875 0.0078125 C6.17017578 0.00394531 7.04738281 0.00007813 7.95117188 -0.00390625 C21.12830207 0.01580524 21.12830207 0.01580524 25.35546875 3.5078125 C28.72554673 7.67085 28.62063006 11.24237852 28.59399414 16.3581543 C28.59414017 17.09011017 28.59428619 17.82206604 28.59443665 18.57620239 C28.59374015 20.99484219 28.58596003 23.41340491 28.578125 25.83203125 C28.57625989 27.50926166 28.57483642 29.18649261 28.57383728 30.86372375 C28.57001945 35.27781682 28.56019541 39.69187697 28.5491333 44.10595703 C28.53890342 48.61034703 28.53433628 53.11474235 28.52929688 57.61914062 C28.5185725 66.45704571 28.50150486 75.29492637 28.48046875 84.1328125 C29.21652344 84.10960937 29.95257812 84.08640625 30.7109375 84.0625 C32.17466797 84.03542969 32.17466797 84.03542969 33.66796875 84.0078125 C35.11236328 83.97300781 35.11236328 83.97300781 36.5859375 83.9375 C40.67029506 84.21309768 43.47306305 85.37725822 46.73046875 87.8203125 C49.15470264 91.02376443 49.48046875 93.12382686 49.48046875 97.1328125 C48.27226323 100.48068926 46.71023035 103.34453175 43.63949585 105.31288147 C41.17143969 106.25017208 39.26117182 106.40593818 36.62353516 106.43920898 C35.66218658 106.45519638 34.70083801 106.47118378 33.71035767 106.48765564 C32.67800995 106.49301834 31.64566223 106.49838104 30.58203125 106.50390625 C29.51431488 106.51293472 28.44659851 106.5219632 27.3465271 106.53126526 C25.08879398 106.54576632 22.83101885 106.55465413 20.57324219 106.55834961 C17.12492859 106.57024537 13.67840475 106.61943424 10.23046875 106.66992188 C8.03516497 106.67938638 5.83985022 106.68662128 3.64453125 106.69140625 C2.61623199 106.71093857 1.58793274 106.73047089 0.5284729 106.75059509 C-7.46931401 106.70036182 -7.46931401 106.70036182 -11.15820312 103.73828125 C-14.15334239 100.43347084 -14.55607429 98.66102275 -14.75 94.3515625 C-14.36975886 90.69093591 -13.02172246 88.76332121 -10.51953125 86.1328125 C-4.86733839 83.09992853 -0.35455837 84.1328125 6.48046875 84.1328125 C6.48046875 63.6728125 6.48046875 43.2128125 6.48046875 22.1328125 C1.86046875 22.1328125 -2.75953125 22.1328125 -7.51953125 22.1328125 C-13.54810268 17.30995536 -13.54810268 17.30995536 -14.51953125 13.1328125 C-14.44083775 8.72597637 -13.98956358 6.71717702 -11.20703125 3.2578125 C-7.50026043 0.32687743 -4.63672237 0.00677106 0 0 Z " fill="#FEFEFE" transform="translate(952.51953125,123.8671875)"/>
<path d="M0 0 C2.75569447 2.18159145 4.43588747 3.87177494 6 7 C6.3751455 11.97067782 6.15878799 15.05151502 3 19 C-0.00985872 21.34100123 -3.28060327 21.42128203 -7.03515625 21.31640625 C-10.24330151 20.79978644 -11.84118317 19.34930067 -14 17 C-15.69932147 14.06480836 -16.01645196 12.39484713 -15.875 9 C-14.86530833 5.5382 -13.46052585 3.60964863 -11 1 C-7.52736727 -0.73631636 -3.78806987 -0.60190402 0 0 Z " fill="#FEFEFE" transform="translate(975,83)"/>
</svg>
