<svg version="1.2" xmlns="http://www.w3.org/2000/svg" viewBox="0 0 200 30" width="200" height="30">
	<title>logo-svg</title>
	<style>
		.s0 { fill: #fefefe } 
	</style>
	<g id="surface1">
		<path id="Layer" class="s0" d="m130.1 8.7q0.3 0 0.6 0c1.8 0 3.1 0.5 4.5 1.4q0.1-0.1 0.2-0.2c1-0.9 2-1.2 3.4-1.2 1.2 0.2 2.4 0.8 3.3 1.7 0.9 1.1 1.3 2.1 1.3 3.6q0 0.1 0 0.3 0 0.6 0 1.1 0 0.4 0 0.8 0 0.8 0 1.6 0 1 0 2.1 0.1 0.8 0 1.6 0 0.3 0.1 0.7 0 0.6 0 1.1 0 0.3 0 0.6c-0.1 0.7-0.4 1-0.8 1.5-0.5 0.4-0.9 0.4-1.6 0.3-0.6-0.3-1-0.6-1.2-1.2-0.1-0.5-0.1-0.5-0.1-1.1q0-0.2 0-0.3 0-0.4 0-0.7 0-0.6 0-1.1 0-1.6 0-3.1 0-1 0-1.9 0-0.4 0-0.8 0-0.5 0-1 0-0.3 0-0.6c-0.1-0.6-0.3-0.8-0.7-1.3-0.7-0.1-1-0.2-1.6 0.1-0.5 0.4-0.6 0.9-0.7 1.6q0 0.2 0 0.5 0 0.2 0 0.3 0 0.4 0 0.7 0 0.5 0 1.1 0 1.5 0 3 0 0.9 0 1.8 0 0.4 0 0.7 0 0.5 0 1 0 0.3 0 0.5c-0.2 0.8-0.5 1.3-1.1 1.7-0.7 0.3-1.1 0.2-1.8-0.1-0.5-0.4-0.6-0.6-0.7-1.2-0.1-0.5-0.1-0.5-0.1-1.1q0-0.1 0-0.3 0-0.4 0-0.7 0-0.6 0-1.1 0-1.6 0-3.1 0-1 0-1.9 0-0.4 0-0.7 0-0.5 0-1 0-0.3 0-0.6c-0.1-0.6-0.3-0.8-0.7-1.2-0.5-0.2-0.9-0.2-1.4-0.2q-0.3 0-0.6 0c-0.2-0.1-0.2-0.1-0.4-0.1q0 0.2 0 0.5 0 2.1 0 4.2 0 1.1 0 2.2 0 1.1 0 2.1 0 0.4 0 0.8 0 0.6 0 1.2 0 0.1 0 0.3c0 0.7-0.1 1.1-0.5 1.7-0.6 0.3-1 0.5-1.7 0.4-0.5-0.3-0.8-0.5-1.2-0.9-0.2-0.6-0.2-1.3-0.2-2q0-0.2 0-0.4 0-0.6 0-1.3 0-0.4 0-0.9 0-0.9 0-1.9 0-1.2 0-2.4 0-0.9 0-1.8 0-0.5 0-0.9 0-0.7 0-1.3 0-0.2 0-0.4c0-0.8 0.1-1.6 0.7-2.3 0.8-0.6 2-0.4 3-0.5z"/>
		<path id="Layer" fill-rule="evenodd" class="s0" d="m71.5 8.6q0.2 0 0.5 0 1.1 0 2.2 0 0.6 0 1.2 0 0.8 0 1.7 0 0.3 0 0.5 0c1.6 0 3 0.4 4.2 1.5 1.4 1.5 1.6 3.1 1.5 5.1 0 0.3 0 0.3 0 0.6 0 1.7 0 1.7-0.5 2.6-0.7 0.5-1.2 0.5-2 0.5-0.2 0-0.2 0-0.4 0q-0.6 0-1.2 0-0.4 0-0.8 0-1 0-2.1 0-1.1 0-2.2 0-2.1 0-4.2 0 0 0.4 0 0.9 0 0.2 0.1 0.5c0 0.5 0.1 0.7 0.3 1.1 0.9 0.6 1.7 0.6 2.7 0.6q0.5 0 1 0 0.8 0 1.6 0 0.7 0 1.5 0 0.2 0 0.5 0c0.7 0 1.1 0 1.7 0.4 0.5 0.5 0.6 0.8 0.6 1.6-0.1 0.7-0.4 1-1 1.4-0.3 0.2-0.6 0.2-1 0.2q-0.2 0-0.4 0-0.3 0-0.5 0-0.3 0-0.5 0-0.6 0-1.1 0-0.8 0-1.6 0-0.5 0-1 0-0.3 0-0.5 0c-1.8 0-3.2-0.3-4.5-1.6-1.3-1.4-1.5-2.9-1.5-4.8q0-0.2 0-0.5 0-0.5 0-1 0-0.8 0-1.6 0-0.5 0-1 0-0.3 0-0.5c0-1.9 0.4-3.2 1.7-4.6 0.9-0.9 2.2-1.4 3.5-1.4zm-1.2 4c-0.7 1.1-0.4 1-0.4 2.8 3.2 0 6.5 0 9.8 0 0.2-1.8 0.2-1.8-0.4-2.8-0.5-0.4-0.8-0.5-1.4-0.5q-0.3 0-0.5 0-0.3 0-0.5 0-0.3 0-0.5 0-0.6 0-1.1 0-0.8 0-1.7 0-0.5 0-1 0-0.3-0.1-0.5-0.1c-1 0-1 0-1.8 0.6z"/>
		<path id="Layer" fill-rule="evenodd" class="s0" d="m32.6 8.5c0.3 0 0.3 0 0.5 0q0.5 0 1 0 0.8 0 1.6 0 0.5 0 1 0 0.2-0.1 0.5-0.1c1.6 0.1 3 0.3 4.3 1.4 1.4 1.4 1.8 2.9 1.7 4.9q0.1 0.1 0.1 0.3 0 0.4-0.1 0.8 0 0.5 0.1 1.1c0 5.4 0 5.4-1.8 7.2q-1.5 1.3-3.4 1.3c-0.2 0-0.2 0-0.5 0.1q-0.3 0-0.5 0-0.3 0-0.6 0-0.6 0-1.2 0-0.8 0-1.7 0-0.6 0-1.2 0-0.2 0-0.5 0c-1.7 0-3-0.4-4.3-1.7-1.1-1.4-1.3-2.6-1.3-4.4q0-0.3 0-0.6 0-0.6 0-1.2 0-0.9 0-1.9 0-0.6 0-1.2-0.1-0.2-0.1-0.5c0.1-1.6 0.5-2.9 1.6-4.1 1.5-1.2 2.9-1.4 4.8-1.4zm-2.5 4.3c-0.3 0.4-0.3 0.6-0.3 1.1q0 0.2 0 0.5 0 0.2 0 0.5 0 0.2 0 0.5 0 0.5 0 1.1 0 0.8-0.1 1.6 0 0.6 0 1.1 0 0.2 0 0.5c0 0.9 0 0.9 0.5 1.7 0.6 0.4 0.8 0.5 1.5 0.5q0.2 0 0.4 0c0.3 0 0.3 0 0.5 0q0.3 0.1 0.5 0 0.6 0.1 1.1 0.1 0.8 0 1.6 0 0.5 0 1.1 0 0.2 0 0.5 0c0.6 0 1.1 0 1.7-0.4 0.7-0.8 0.7-1.7 0.7-2.8 0-0.2 0-0.2 0-0.5q0-0.4 0-0.9 0-0.7 0-1.4 0-0.4 0-0.9 0-0.2 0-0.4c0-0.8-0.1-1.5-0.6-2.2-0.8-0.6-1.6-0.6-2.5-0.6q-0.3 0-0.5 0-0.5 0-1 0-0.8 0-1.5 0-0.5 0-1 0-0.2 0-0.4 0c-1 0-1.6 0.1-2.2 0.9z"/>
		<path id="Layer" fill-rule="evenodd" class="s0" d="m111.4 8.8c0.2 0 0.2 0 0.5 0q0.3 0 0.5 0 0.3 0 0.6 0 0.6 0 1.2 0 1 0 1.9-0.1 0.6 0 1.1 0 0.3 0 0.6 0c1.6 0 2.9 0.4 4.1 1.6 0.9 0.9 1.4 1.9 1.4 3.3q0 0.2 0 0.5 0 0.3 0 0.6c0 0.3 0 0.3 0 0.6q0 0.6 0 1.2 0 1 0.1 1.9 0 0.6 0 1.2 0 0.3 0 0.6c0 1.8-0.6 3-1.9 4.3-1.2 1.1-2.5 1.2-4.1 1.2q-0.3 0-0.6 0-0.6 0-1.2 0-1 0-1.9 0-0.6 0-1.2 0c-0.3 0-0.3 0-0.6 0-1.4 0-2.5-0.3-3.6-1.1-1-1.1-1.8-2.1-1.8-3.7q0-0.3 0-0.5 0-0.3 0-0.6 0-0.3 0-0.6 0-0.6 0-1.2 0-1 0-1.9 0-0.6 0-1.2 0-0.3 0-0.6c0-1.8 0.5-3 1.7-4.4 1-0.8 2-1.1 3.2-1.1zm-1.1 4.1c-0.3 0.4-0.3 0.7-0.3 1.2q0 0.2 0 0.4 0 0.3 0 0.5 0 0.3 0 0.5 0 0.6 0 1.1 0 0.9 0 1.7 0 0.5 0 1 0 0.3 0 0.5c0 0.7 0 1.2 0.3 1.8 0.9 0.7 1.8 0.7 2.8 0.7q0.2 0 0.5 0 0.4 0 0.8 0 0.7 0 1.4 0 0.4 0 0.9 0 0.2 0 0.4 0c0.8 0 1.4-0.1 2.2-0.6 0.4-0.4 0.5-0.7 0.6-1.3q0-0.2 0-0.4c0-0.3 0-0.3 0-0.5q0-0.2 0-0.5 0-0.5 0-0.9 0-0.8 0-1.6 0.1-0.4 0.1-0.9 0-0.2 0-0.5c0-0.9-0.1-1.5-0.5-2.3-0.5-0.4-0.8-0.5-1.4-0.6q-0.2 0-0.4 0c-0.2 0-0.2 0-0.5 0-0.2 0-0.2 0-0.4 0q-0.5 0-1 0-0.8 0-1.5 0-0.5-0.1-1-0.1-0.2 0-0.5 0c-0.9 0-1.8 0.1-2.5 0.8z"/>
		<path id="Layer" class="s0" d="m52.2 1.9c0.5 0.3 0.7 0.5 0.9 1.1 0.2 0.6 0.2 1.2 0.2 1.8q0 0.2 0 0.3 0 0.6 0 1.2 0 0.4 0 0.8 0 1.1 0 2.2 0 1.1 0 2.2 0 2.2 0 4.3c0.1-0.1 0.1-0.1 0.3-0.3q0.2-0.2 0.4-0.4 0.2-0.2 0.5-0.5 0.5-0.4 1-0.9 0.8-0.8 1.7-1.6 0.1-0.1 0.2-0.3 0.6-0.5 1.1-1.1 0.5-0.4 0.9-0.8 0.1-0.2 0.2-0.3c0.6-0.6 1-0.9 1.9-1 0.6 0.1 1 0.2 1.4 0.7 0.4 0.5 0.4 0.8 0.4 1.4-0.4 1.3-2 2.4-2.9 3.3q-0.4 0.4-0.8 0.8-0.3 0.2-0.5 0.5c-0.1 0.1-0.1 0.1-0.2 0.2q-0.7 0.7-1.5 1.3c0.2 0.5 0.5 0.8 0.8 1.1q0.2 0.2 0.3 0.3 0.2 0.2 0.3 0.4 0.2 0.1 0.4 0.3 0.7 0.7 1.4 1.3 0.5 0.5 1 1 0.1 0.2 0.3 0.4c0.7 0.6 1.2 1.2 1.3 2.1-0.1 0.8-0.3 1-0.8 1.6-0.6 0.2-1.1 0.2-1.6 0.1-1.4-0.9-2.6-2.3-3.7-3.5q-0.3-0.3-0.6-0.6-0.8-0.8-1.6-1.6-0.3 0.2-0.6 0.4-0.1 0.1-0.3 0.3c-0.5 0.4-0.5 0.4-0.8 1q0 0.2 0 0.4 0 0.2 0 0.4 0 0.3 0 0.5c0 1.7 0 1.7-0.6 2.4-0.4 0.4-1 0.4-1.6 0.4-0.5-0.1-0.7-0.3-1.1-0.7-0.4-0.9-0.3-1.7-0.3-2.7q0-0.2 0-0.5 0-0.9 0-1.7 0-0.6 0-1.3 0-1.3 0-2.6 0-1.5 0-3 0-1.8 0-3.6 0-1 0-2 0-0.9 0.1-1.8 0-0.4 0-0.7 0-0.5 0-1 0-0.3 0-0.5c0.1-0.7 0.4-0.9 0.9-1.3 0.5-0.3 1-0.2 1.6-0.2z"/>
		<path id="Layer" class="s0" d="m171.5 8.9q0.3 0 0.5 0 1.2 0 2.4 0 0.6 0 1.2 0 1 0 1.9 0c0.2 0 0.2 0 0.5 0 1.7 0 3 0.5 4.2 1.6 0.9 1 1.3 2.2 1.4 3.6-0.2 0.7-0.4 1.2-1 1.6-0.6 0.2-1.1 0.2-1.7-0.1-0.8-0.6-1-1.2-1.2-2.1-0.2-0.5-0.3-0.6-0.8-0.9-0.3 0-0.3 0-0.7 0q-0.3 0-0.5 0-0.3 0-0.5 0-0.3 0-0.5 0-0.6 0-1.1 0-0.8 0-1.7 0-0.5-0.1-1-0.1-0.3 0-0.5 0c-0.7 0-1.2 0.1-1.8 0.4-0.4 0.8-0.4 1.5-0.4 2.3q0 0.3 0 0.5 0 0.6 0 1.1 0 0.8 0 1.7 0 0.5 0 1c0 0.3 0 0.3 0 0.5 0 0.8 0 1.1 0.5 1.8 0.6 0.4 1 0.4 1.7 0.4q0.2 0.1 0.4 0.1c0.2 0 0.2 0 0.4 0q0.3 0 0.5 0 0.4 0 0.9 0 0.7 0 1.4 0 0.5 0 0.9 0c0.2 0 0.2 0 0.4 0 0.8 0 1.5-0.1 2.3-0.4 0-0.2 0-0.2 0.1-0.4 0.3-1.7 0.3-1.7 1.1-2.3 0.5-0.3 1-0.2 1.5-0.2 0.5 0.2 0.8 0.5 1.1 1 0.2 1.2 0 2.3-0.6 3.3q-0.1 0.2-0.2 0.3c-0.7 1.2-1.8 1.8-3 2.1-0.5 0.1-0.5 0.1-0.9 0.1q-0.3 0-0.6 0-0.3 0-0.6 0-0.3 0-0.6 0-0.7 0-1.5 0-0.8 0-1.6 0-0.6 0-1.2 0-0.3 0-0.6 0c-1.4 0-2.5-0.2-3.6-1.2-0.2-0.1-0.2-0.1-0.4-0.3-1.1-1.4-1.5-2.7-1.5-4.5q0-0.3 0-0.6 0-0.6 0.1-1.2 0-0.9 0-1.8 0-0.6 0-1.2 0-0.3 0-0.5c0-1.7 0.4-3 1.6-4.3 1-0.8 2-1.2 3.3-1.3z"/>
		<path id="Layer" class="s0" d="m90.1 8.6q0.3 0 0.5 0 0.7 0 1.3 0 0.9 0 1.9 0 0.6 0 1.2 0c0.2 0 0.2 0 0.5 0 4.3 0.1 4.3 0.1 6 1.2 1.3 1.4 1.9 2.8 1.9 4.7q0 0.3 0 0.6 0 0.3 0 0.7 0 0.3 0 0.7 0 0.7 0 1.4 0 0.9 0 1.8 0 0.7 0 1.5 0 0.3 0 0.6 0 0.5 0 1 0 0.2 0 0.5c-0.1 0.7-0.2 1.3-0.7 1.9-0.4 0.3-0.6 0.4-1.1 0.5-0.7-0.1-1-0.3-1.5-0.7-0.6-0.8-0.4-1.9-0.4-2.8q0-0.4 0-0.8 0-0.9 0-1.9 0-1.5 0-3.1 0-0.5 0-1 0-0.4 0-0.7 0-0.3 0-0.6c0-0.5-0.1-1-0.3-1.5-0.9-0.4-2-0.3-2.9-0.3q-0.3 0-0.6-0.1-0.9 0-1.8 0-0.6 0-1.2 0-1.5 0-2.9 0 0 0.2 0 0.4 0 2.1 0 4.1 0 1.1 0 2.1 0 1.1 0 2.1 0 0.4 0 0.8 0 0.5 0 1.1 0 0.3 0 0.6c-0.1 0.8-0.3 1.5-0.9 2-0.5 0.2-0.8 0.3-1.4 0.2-0.6-0.3-0.9-0.6-1.3-1.1q0-0.7 0-1.4 0-0.2 0-0.4 0-0.7 0-1.4 0-0.5 0-1 0-1 0-2 0-1.2 0-2.5 0-1 0-2 0-0.5 0-1 0-0.6 0-1.3c0-0.2 0-0.2 0-0.4 0-0.8 0.1-1.3 0.5-2 1-0.6 2-0.5 3.2-0.5z"/>
		<path id="Layer" class="s0" d="m15.5 1.9c0.4 0.4 0.7 0.7 0.9 1.2q0.1 0.6 0.1 1.2 0 0.2 0 0.3 0 0.6-0.1 1.2 0 0.4 0 0.8 0 0.9 0 1.9 0.3 0 0.5 0 0.9 0 1.8 0 0.4-0.1 0.8-0.1 0.5 0 1.1 0 0.2 0 0.3 0c0.8 0 1.3 0.2 1.9 0.7 0.3 0.5 0.3 0.8 0.3 1.4-0.2 0.7-0.4 0.9-0.9 1.3-0.5 0.3-1 0.2-1.6 0.2-0.1 0-0.1 0-0.3 0q-0.6 0-1.2 0-0.4 0-0.7 0-1 0-2 0 0 1.9 0.1 3.7 0 0.6 0 1.3 0 0.9 0 1.8 0 0.3 0 0.6c0 1 0 1 0.5 1.9 0.6 0.4 1.1 0.5 1.8 0.5q0.3 0 0.6 0 0.5 0 1.1 0c1.4 0 1.4 0 2 0.5 0.4 0.5 0.6 0.9 0.6 1.5-0.1 0.6-0.3 1-0.8 1.4-0.5 0.3-0.8 0.3-1.4 0.3-0.3 0-0.3 0-0.6 0q-0.3 0-0.6 0-0.2 0-0.5 0c-2 0-3.4-0.3-4.9-1.7-1.3-1.3-1.5-3-1.4-4.7q0-0.3 0-0.7 0-0.8 0-1.6 0-0.8 0-1.6 0-1.6 0-3.2-0.1 0-0.3 0c-0.3 0-0.3 0-0.5 0q-0.2 0-0.5 0c-0.6 0-1.1-0.2-1.6-0.6-0.4-0.5-0.4-0.8-0.4-1.5 0.2-0.6 0.5-1.1 1.1-1.4 0.6-0.1 0.6-0.1 1.2 0q0.3 0 0.6 0 0.2 0 0.4 0 0-0.2 0-0.5 0-0.8 0-1.7 0-0.4 0-0.8 0-0.5 0-1 0-0.2 0-0.4c0-0.7 0.1-1.2 0.5-1.8 0.7-0.5 1.2-0.6 2.1-0.4z"/>
		<path id="Layer" class="s0" d="m152.2 8.8c0.2 0 0.2 0 0.4 0q0.3 0 0.5 0 0.2 0 0.4 0c2.1 0 2.1 0 2.8 0.5 0.5 0.7 0.5 1.3 0.5 2.1q0 0.2 0 0.4 0 0.5 0 1.1 0 0.4 0 0.8 0 1.1 0 2.1 0 1.1 0 2.2 0 2.1 0 4.2 0.1 0 0.3 0c0.3 0 0.3 0 0.5 0 0.2 0 0.2 0 0.5 0 0.6 0 1.1 0.2 1.6 0.6 0.4 0.5 0.4 0.9 0.4 1.5-0.2 0.5-0.4 1-0.9 1.3-0.4 0.2-0.7 0.2-1.1 0.2q-0.3 0-0.5 0-0.2 0-0.5 0-0.2 0-0.5 0-0.5 0-1.1 0-0.8 0-1.6 0-0.6 0-1.1 0-0.2 0-0.5 0c-1.3 0-1.3 0-1.9-0.4-0.4-0.6-0.5-0.9-0.5-1.5 0-0.6 0.3-0.9 0.7-1.4 0.9-0.4 1.6-0.3 2.7-0.3 0-3.2 0-6.5 0-9.9q-1.1 0-2.3 0c-0.9-0.7-0.9-0.7-1.1-1.4 0-0.7 0.1-1 0.5-1.6 0.6-0.5 1.1-0.5 1.8-0.5z"/>
		<path id="Layer" class="s0" d="m155.8 2.3c0.5 0.3 0.7 0.6 1 1.1 0 0.8 0 1.3-0.5 1.9-0.5 0.4-1 0.4-1.6 0.4-0.5-0.1-0.8-0.4-1.1-0.7-0.3-0.5-0.3-0.8-0.3-1.3 0.1-0.6 0.4-0.9 0.8-1.3 0.5-0.3 1.1-0.2 1.7-0.1z"/>
	</g>
</svg>