<?xml version="1.0" encoding="UTF-8"?>
<svg xmlns="http://www.w3.org/2000/svg" xmlns:xlink="http://www.w3.org/1999/xlink" width="200px" height="50px" viewBox="0 0 200 50" version="1.1">
<g id="surface1">
<path style=" stroke:none;fill-rule:nonzero;fill:rgb(99.607843%,99.607843%,99.607843%);fill-opacity:1;" d="M 130.128906 19.746094 C 130.332031 19.742188 130.535156 19.738281 130.742188 19.730469 C 132.496094 19.714844 133.761719 20.171875 135.242188 21.085938 C 135.308594 21.019531 135.378906 20.957031 135.449219 20.886719 C 136.449219 19.964844 137.402344 19.722656 138.753906 19.746094 C 140.011719 19.910156 141.222656 20.488281 142.097656 21.40625 C 142.972656 22.546875 143.410156 23.503906 143.421875 24.964844 C 143.421875 25.078125 143.425781 25.191406 143.425781 25.308594 C 143.425781 25.675781 143.425781 26.042969 143.429688 26.410156 C 143.429688 26.667969 143.429688 26.925781 143.433594 27.183594 C 143.433594 27.726562 143.433594 28.265625 143.433594 28.804688 C 143.433594 29.496094 143.4375 30.183594 143.441406 30.871094 C 143.449219 31.402344 143.449219 31.9375 143.449219 32.46875 C 143.449219 32.722656 143.449219 32.976562 143.453125 33.230469 C 143.457031 33.589844 143.453125 33.941406 143.453125 34.300781 C 143.453125 34.503906 143.453125 34.703125 143.453125 34.910156 C 143.359375 35.566406 143.144531 35.910156 142.738281 36.421875 C 142.226562 36.796875 141.765625 36.816406 141.144531 36.742188 C 140.511719 36.402344 140.117188 36.140625 139.867188 35.464844 C 139.824219 34.972656 139.824219 34.972656 139.824219 34.390625 C 139.824219 34.285156 139.824219 34.179688 139.824219 34.070312 C 139.824219 33.839844 139.824219 33.609375 139.824219 33.378906 C 139.824219 33.011719 139.820312 32.648438 139.816406 32.285156 C 139.808594 31.246094 139.808594 30.210938 139.804688 29.175781 C 139.804688 28.542969 139.800781 27.90625 139.792969 27.269531 C 139.792969 27.03125 139.792969 26.789062 139.792969 26.546875 C 139.792969 26.207031 139.792969 25.871094 139.789062 25.535156 C 139.789062 25.339844 139.789062 25.148438 139.789062 24.949219 C 139.691406 24.339844 139.511719 24.074219 139.070312 23.644531 C 138.449219 23.460938 138.105469 23.421875 137.503906 23.660156 C 136.972656 24.117188 136.851562 24.566406 136.796875 25.253906 C 136.796875 25.441406 136.796875 25.628906 136.796875 25.816406 C 136.792969 25.921875 136.792969 26.023438 136.792969 26.128906 C 136.792969 26.351562 136.792969 26.574219 136.792969 26.796875 C 136.792969 27.152344 136.792969 27.503906 136.789062 27.855469 C 136.78125 28.855469 136.777344 29.859375 136.777344 30.863281 C 136.777344 31.476562 136.769531 32.089844 136.765625 32.703125 C 136.761719 32.9375 136.761719 33.171875 136.765625 33.402344 C 136.765625 33.730469 136.761719 34.058594 136.761719 34.386719 C 136.757812 34.570312 136.757812 34.753906 136.757812 34.949219 C 136.644531 35.667969 136.332031 36.207031 135.738281 36.640625 C 135.027344 36.851562 134.589844 36.816406 133.925781 36.472656 C 133.449219 36.066406 133.347656 35.890625 133.167969 35.304688 C 133.128906 34.792969 133.128906 34.792969 133.128906 34.210938 C 133.128906 34.105469 133.128906 33.996094 133.128906 33.886719 C 133.125 33.660156 133.125 33.425781 133.125 33.199219 C 133.125 32.832031 133.121094 32.46875 133.121094 32.105469 C 133.113281 31.066406 133.109375 30.03125 133.109375 28.996094 C 133.105469 28.359375 133.105469 27.722656 133.097656 27.089844 C 133.097656 26.847656 133.097656 26.605469 133.097656 26.363281 C 133.097656 26.027344 133.097656 25.691406 133.089844 25.351562 C 133.089844 25.160156 133.089844 24.96875 133.089844 24.769531 C 132.996094 24.183594 132.832031 24.003906 132.371094 23.644531 C 131.917969 23.417969 131.5 23.425781 130.996094 23.394531 C 130.808594 23.378906 130.617188 23.363281 130.421875 23.351562 C 130.203125 23.339844 130.203125 23.339844 129.980469 23.324219 C 129.980469 23.472656 129.980469 23.621094 129.980469 23.777344 C 129.992188 25.195312 130 26.613281 130.003906 28.03125 C 130.007812 28.757812 130.011719 29.488281 130.015625 30.214844 C 130.019531 30.917969 130.023438 31.621094 130.027344 32.324219 C 130.027344 32.59375 130.027344 32.863281 130.03125 33.128906 C 130.035156 33.503906 130.035156 33.882812 130.035156 34.257812 C 130.035156 34.371094 130.035156 34.480469 130.039062 34.59375 C 130.035156 35.285156 129.925781 35.714844 129.503906 36.261719 C 128.863281 36.640625 128.535156 36.761719 127.796875 36.652344 C 127.261719 36.417969 126.980469 36.242188 126.628906 35.785156 C 126.402344 35.160156 126.449219 34.496094 126.449219 33.839844 C 126.449219 33.707031 126.449219 33.578125 126.449219 33.441406 C 126.445312 33.011719 126.445312 32.578125 126.445312 32.144531 C 126.445312 31.84375 126.441406 31.542969 126.441406 31.242188 C 126.441406 30.609375 126.441406 29.980469 126.441406 29.347656 C 126.441406 28.539062 126.441406 27.730469 126.4375 26.921875 C 126.433594 26.300781 126.433594 25.675781 126.433594 25.054688 C 126.433594 24.757812 126.433594 24.460938 126.433594 24.160156 C 126.433594 23.746094 126.433594 23.328125 126.433594 22.910156 C 126.433594 22.789062 126.429688 22.667969 126.429688 22.539062 C 126.433594 21.652344 126.519531 20.929688 127.097656 20.238281 C 127.925781 19.558594 129.113281 19.761719 130.128906 19.746094 Z M 130.128906 19.746094 "/>
<path style=" stroke:none;fill-rule:nonzero;fill:rgb(99.607843%,99.607843%,99.607843%);fill-opacity:1;" d="M 71.476562 19.617188 C 71.636719 19.613281 71.800781 19.613281 71.96875 19.609375 C 72.714844 19.601562 73.464844 19.597656 74.210938 19.59375 C 74.605469 19.589844 74.996094 19.585938 75.390625 19.582031 C 75.957031 19.570312 76.527344 19.566406 77.097656 19.566406 C 77.269531 19.5625 77.441406 19.558594 77.621094 19.554688 C 79.238281 19.558594 80.59375 20.011719 81.808594 21.097656 C 83.164062 22.585938 83.378906 24.226562 83.335938 26.175781 C 83.335938 26.484375 83.335938 26.484375 83.335938 26.796875 C 83.316406 28.546875 83.316406 28.546875 82.777344 29.394531 C 82.132812 29.894531 81.566406 29.941406 80.777344 29.925781 C 80.597656 29.925781 80.597656 29.925781 80.417969 29.925781 C 80.027344 29.925781 79.640625 29.921875 79.25 29.917969 C 78.980469 29.917969 78.710938 29.917969 78.441406 29.917969 C 77.730469 29.914062 77.019531 29.910156 76.308594 29.90625 C 75.582031 29.902344 74.855469 29.898438 74.128906 29.894531 C 72.707031 29.890625 71.285156 29.882812 69.863281 29.871094 C 69.878906 30.179688 69.898438 30.484375 69.921875 30.792969 C 69.933594 30.960938 69.941406 31.132812 69.953125 31.308594 C 70.015625 31.761719 70.089844 32.042969 70.339844 32.425781 C 71.179688 33.019531 72.011719 32.972656 73 32.964844 C 73.335938 32.96875 73.667969 32.972656 74.003906 32.972656 C 74.53125 32.976562 75.054688 32.976562 75.582031 32.976562 C 76.089844 32.976562 76.597656 32.980469 77.105469 32.988281 C 77.261719 32.984375 77.421875 32.984375 77.582031 32.980469 C 78.28125 32.988281 78.675781 32.996094 79.28125 33.375 C 79.8125 33.949219 79.910156 34.167969 79.898438 34.972656 C 79.792969 35.660156 79.492188 35.984375 78.949219 36.421875 C 78.570312 36.613281 78.339844 36.601562 77.917969 36.605469 C 77.765625 36.605469 77.617188 36.605469 77.464844 36.605469 C 77.304688 36.605469 77.144531 36.609375 76.976562 36.609375 C 76.808594 36.609375 76.644531 36.609375 76.472656 36.609375 C 76.121094 36.613281 75.769531 36.613281 75.417969 36.613281 C 74.878906 36.613281 74.34375 36.613281 73.808594 36.617188 C 73.464844 36.617188 73.121094 36.617188 72.78125 36.617188 C 72.621094 36.621094 72.464844 36.621094 72.300781 36.621094 C 70.472656 36.613281 69.132812 36.285156 67.785156 34.996094 C 66.464844 33.566406 66.328125 32.113281 66.324219 30.230469 C 66.324219 30.0625 66.324219 29.898438 66.324219 29.726562 C 66.324219 29.378906 66.324219 29.027344 66.324219 28.679688 C 66.324219 28.148438 66.320312 27.617188 66.316406 27.085938 C 66.316406 26.746094 66.316406 26.40625 66.316406 26.066406 C 66.316406 25.910156 66.3125 25.75 66.3125 25.589844 C 66.316406 23.707031 66.707031 22.363281 67.988281 20.964844 C 68.941406 20.050781 70.171875 19.636719 71.476562 19.617188 Z M 70.316406 23.628906 C 69.644531 24.742188 69.863281 24.550781 69.863281 26.355469 C 73.121094 26.355469 76.386719 26.355469 79.746094 26.355469 C 79.910156 24.558594 79.910156 24.558594 79.269531 23.644531 C 78.804688 23.199219 78.488281 23.101562 77.855469 23.09375 C 77.699219 23.089844 77.546875 23.085938 77.386719 23.082031 C 77.222656 23.082031 77.058594 23.082031 76.886719 23.082031 C 76.714844 23.082031 76.546875 23.078125 76.371094 23.078125 C 76.011719 23.074219 75.648438 23.074219 75.289062 23.074219 C 74.738281 23.074219 74.183594 23.066406 73.636719 23.054688 C 73.285156 23.054688 72.933594 23.050781 72.582031 23.050781 C 72.417969 23.050781 72.253906 23.046875 72.082031 23.042969 C 71.082031 23.042969 71.082031 23.042969 70.316406 23.628906 Z M 70.316406 23.628906 "/>
<path style=" stroke:none;fill-rule:nonzero;fill:rgb(99.607843%,99.607843%,99.607843%);fill-opacity:1;" d="M 32.632812 19.460938 C 32.875 19.460938 32.875 19.460938 33.121094 19.460938 C 33.464844 19.457031 33.804688 19.457031 34.144531 19.457031 C 34.664062 19.457031 35.183594 19.457031 35.703125 19.453125 C 36.035156 19.453125 36.367188 19.453125 36.699219 19.453125 C 36.855469 19.449219 37.007812 19.449219 37.164062 19.449219 C 38.8125 19.453125 40.152344 19.738281 41.476562 20.765625 C 42.855469 22.167969 43.257812 23.738281 43.25 25.675781 C 43.25 25.789062 43.253906 25.90625 43.253906 26.027344 C 43.253906 26.277344 43.253906 26.523438 43.25 26.769531 C 43.25 27.140625 43.25 27.511719 43.253906 27.878906 C 43.253906 33.308594 43.253906 33.308594 41.519531 35.144531 C 40.535156 36.003906 39.394531 36.4375 38.097656 36.449219 C 37.851562 36.449219 37.851562 36.449219 37.597656 36.453125 C 37.421875 36.453125 37.246094 36.453125 37.0625 36.453125 C 36.878906 36.457031 36.699219 36.457031 36.507812 36.457031 C 36.121094 36.457031 35.730469 36.457031 35.34375 36.460938 C 34.753906 36.460938 34.160156 36.464844 33.574219 36.472656 C 33.195312 36.472656 32.816406 36.472656 32.441406 36.472656 C 32.261719 36.476562 32.089844 36.480469 31.90625 36.480469 C 30.15625 36.472656 28.871094 36.0625 27.601562 34.824219 C 26.464844 33.425781 26.277344 32.199219 26.273438 30.425781 C 26.269531 30.234375 26.269531 30.042969 26.269531 29.839844 C 26.269531 29.433594 26.269531 29.023438 26.269531 28.613281 C 26.265625 27.988281 26.261719 27.363281 26.253906 26.742188 C 26.253906 26.34375 26.253906 25.945312 26.253906 25.546875 C 26.25 25.363281 26.246094 25.175781 26.246094 24.984375 C 26.253906 23.4375 26.675781 22.070312 27.761719 20.925781 C 29.304688 19.703125 30.707031 19.464844 32.632812 19.460938 Z M 30.058594 23.769531 C 29.792969 24.183594 29.773438 24.414062 29.769531 24.902344 C 29.765625 25.054688 29.761719 25.207031 29.761719 25.367188 C 29.761719 25.53125 29.761719 25.699219 29.761719 25.867188 C 29.757812 26.039062 29.757812 26.210938 29.753906 26.386719 C 29.753906 26.746094 29.753906 27.109375 29.753906 27.46875 C 29.753906 28.023438 29.746094 28.574219 29.742188 29.128906 C 29.738281 29.480469 29.738281 29.832031 29.738281 30.183594 C 29.738281 30.347656 29.734375 30.511719 29.730469 30.683594 C 29.738281 31.636719 29.738281 31.636719 30.21875 32.449219 C 30.761719 32.839844 31.019531 32.925781 31.675781 32.933594 C 31.828125 32.9375 31.980469 32.941406 32.132812 32.941406 C 32.378906 32.941406 32.378906 32.941406 32.628906 32.945312 C 32.796875 32.949219 32.964844 32.949219 33.136719 32.949219 C 33.492188 32.949219 33.847656 32.953125 34.199219 32.957031 C 34.746094 32.957031 35.285156 32.964844 35.832031 32.972656 C 36.175781 32.972656 36.519531 32.972656 36.863281 32.976562 C 37.027344 32.980469 37.191406 32.980469 37.355469 32.984375 C 38.039062 32.980469 38.484375 32.972656 39.09375 32.644531 C 39.800781 31.785156 39.769531 30.851562 39.769531 29.789062 C 39.769531 29.570312 39.769531 29.570312 39.769531 29.347656 C 39.773438 29.042969 39.773438 28.738281 39.769531 28.433594 C 39.769531 27.964844 39.777344 27.503906 39.777344 27.035156 C 39.777344 26.738281 39.777344 26.441406 39.777344 26.144531 C 39.78125 26.003906 39.78125 25.867188 39.785156 25.726562 C 39.777344 24.859375 39.691406 24.230469 39.242188 23.480469 C 38.449219 22.882812 37.605469 22.933594 36.652344 22.941406 C 36.496094 22.941406 36.339844 22.9375 36.179688 22.9375 C 35.847656 22.9375 35.519531 22.9375 35.191406 22.941406 C 34.691406 22.941406 34.1875 22.941406 33.683594 22.9375 C 33.363281 22.9375 33.042969 22.9375 32.722656 22.941406 C 32.574219 22.9375 32.425781 22.9375 32.269531 22.9375 C 31.324219 22.949219 30.714844 23.027344 30.058594 23.769531 Z M 30.058594 23.769531 "/>
<path style=" stroke:none;fill-rule:nonzero;fill:rgb(99.607843%,99.607843%,99.607843%);fill-opacity:1;" d="M 111.378906 19.78125 C 111.632812 19.777344 111.632812 19.777344 111.894531 19.773438 C 112.078125 19.773438 112.261719 19.769531 112.449219 19.769531 C 112.640625 19.769531 112.832031 19.769531 113.027344 19.765625 C 113.425781 19.761719 113.832031 19.761719 114.230469 19.761719 C 114.84375 19.757812 115.457031 19.753906 116.066406 19.746094 C 116.460938 19.742188 116.851562 19.742188 117.246094 19.738281 C 117.425781 19.738281 117.605469 19.734375 117.792969 19.730469 C 119.429688 19.738281 120.691406 20.136719 121.886719 21.269531 C 122.808594 22.246094 123.316406 23.183594 123.328125 24.566406 C 123.332031 24.742188 123.332031 24.917969 123.332031 25.101562 C 123.335938 25.292969 123.335938 25.480469 123.335938 25.675781 C 123.339844 25.972656 123.339844 25.972656 123.339844 26.277344 C 123.339844 26.691406 123.339844 27.109375 123.339844 27.527344 C 123.339844 28.160156 123.347656 28.796875 123.355469 29.433594 C 123.355469 29.839844 123.355469 30.242188 123.355469 30.648438 C 123.355469 30.839844 123.359375 31.027344 123.363281 31.222656 C 123.351562 33.042969 122.800781 34.1875 121.527344 35.464844 C 120.316406 36.617188 118.988281 36.652344 117.398438 36.652344 C 117.203125 36.652344 117.003906 36.652344 116.804688 36.652344 C 116.390625 36.652344 115.976562 36.652344 115.5625 36.652344 C 114.933594 36.652344 114.304688 36.65625 113.675781 36.660156 C 113.269531 36.660156 112.867188 36.660156 112.464844 36.660156 C 112.183594 36.664062 112.183594 36.664062 111.898438 36.667969 C 110.542969 36.652344 109.425781 36.429688 108.324219 35.609375 C 107.285156 34.519531 106.527344 33.457031 106.511719 31.898438 C 106.507812 31.722656 106.503906 31.550781 106.503906 31.371094 C 106.503906 31.183594 106.503906 30.996094 106.5 30.800781 C 106.5 30.605469 106.496094 30.410156 106.496094 30.210938 C 106.496094 29.800781 106.492188 29.386719 106.492188 28.976562 C 106.488281 28.351562 106.480469 27.722656 106.472656 27.097656 C 106.472656 26.699219 106.472656 26.300781 106.472656 25.898438 C 106.464844 25.710938 106.464844 25.527344 106.460938 25.332031 C 106.464844 23.503906 106.972656 22.273438 108.230469 20.949219 C 109.152344 20.121094 110.15625 19.792969 111.378906 19.78125 Z M 110.261719 23.929688 C 110.007812 24.34375 109.984375 24.582031 109.980469 25.058594 C 109.980469 25.214844 109.980469 25.367188 109.976562 25.527344 C 109.976562 25.691406 109.976562 25.855469 109.976562 26.027344 C 109.976562 26.199219 109.976562 26.371094 109.972656 26.546875 C 109.972656 26.90625 109.972656 27.269531 109.976562 27.628906 C 109.976562 28.183594 109.972656 28.734375 109.964844 29.285156 C 109.964844 29.636719 109.964844 29.988281 109.964844 30.339844 C 109.964844 30.503906 109.964844 30.671875 109.960938 30.839844 C 109.96875 31.527344 109.980469 31.988281 110.308594 32.597656 C 111.160156 33.300781 112.074219 33.277344 113.125 33.277344 C 113.265625 33.277344 113.410156 33.277344 113.550781 33.277344 C 113.851562 33.277344 114.148438 33.277344 114.445312 33.277344 C 114.898438 33.277344 115.351562 33.28125 115.804688 33.285156 C 116.09375 33.285156 116.382812 33.285156 116.675781 33.285156 C 116.808594 33.285156 116.941406 33.289062 117.082031 33.289062 C 117.9375 33.285156 118.542969 33.167969 119.292969 32.746094 C 119.703125 32.296875 119.832031 31.996094 119.851562 31.394531 C 119.855469 31.253906 119.859375 31.113281 119.863281 30.96875 C 119.867188 30.742188 119.867188 30.742188 119.871094 30.511719 C 119.875 30.355469 119.878906 30.199219 119.886719 30.039062 C 119.894531 29.710938 119.898438 29.378906 119.902344 29.050781 C 119.914062 28.546875 119.925781 28.042969 119.941406 27.542969 C 119.949219 27.222656 119.957031 26.902344 119.960938 26.578125 C 119.964844 26.429688 119.972656 26.28125 119.976562 26.128906 C 119.988281 25.222656 119.90625 24.589844 119.457031 23.800781 C 119.003906 23.394531 118.707031 23.261719 118.105469 23.246094 C 117.964844 23.242188 117.824219 23.238281 117.679688 23.230469 C 117.453125 23.230469 117.453125 23.230469 117.222656 23.222656 C 116.988281 23.21875 116.988281 23.21875 116.753906 23.210938 C 116.421875 23.203125 116.09375 23.199219 115.765625 23.191406 C 115.261719 23.183594 114.761719 23.167969 114.257812 23.152344 C 113.9375 23.148438 113.617188 23.140625 113.296875 23.136719 C 113.148438 23.128906 113 23.125 112.847656 23.121094 C 111.855469 23.109375 110.972656 23.15625 110.261719 23.929688 Z M 110.261719 23.929688 "/>
<path style=" stroke:none;fill-rule:nonzero;fill:rgb(99.607843%,99.607843%,99.607843%);fill-opacity:1;" d="M 52.160156 12.941406 C 52.6875 13.238281 52.902344 13.445312 53.136719 14.003906 C 53.292969 14.605469 53.316406 15.160156 53.3125 15.773438 C 53.3125 15.894531 53.3125 16.015625 53.3125 16.136719 C 53.3125 16.535156 53.308594 16.925781 53.308594 17.320312 C 53.308594 17.597656 53.308594 17.871094 53.308594 18.144531 C 53.304688 18.863281 53.300781 19.582031 53.296875 20.304688 C 53.292969 21.039062 53.292969 21.777344 53.292969 22.511719 C 53.289062 23.953125 53.285156 25.394531 53.277344 26.835938 C 53.4375 26.675781 53.4375 26.675781 53.605469 26.503906 C 53.746094 26.363281 53.886719 26.21875 54.035156 26.070312 C 54.175781 25.929688 54.316406 25.785156 54.464844 25.640625 C 54.792969 25.316406 55.125 25.011719 55.476562 24.714844 C 56.066406 24.207031 56.609375 23.667969 57.15625 23.113281 C 57.246094 23.023438 57.335938 22.933594 57.425781 22.839844 C 57.800781 22.464844 58.171875 22.082031 58.542969 21.707031 C 58.816406 21.425781 59.09375 21.144531 59.367188 20.867188 C 59.449219 20.785156 59.535156 20.699219 59.621094 20.609375 C 60.21875 20.003906 60.621094 19.695312 61.457031 19.566406 C 62.140625 19.660156 62.460938 19.832031 62.949219 20.300781 C 63.269531 20.757812 63.324219 21.113281 63.261719 21.660156 C 62.925781 22.964844 61.308594 24.085938 60.371094 25.019531 C 60.113281 25.28125 59.855469 25.539062 59.597656 25.800781 C 59.429688 25.964844 59.261719 26.132812 59.097656 26.300781 C 58.980469 26.414062 58.980469 26.414062 58.863281 26.53125 C 58.40625 26.988281 57.933594 27.402344 57.421875 27.792969 C 57.632812 28.261719 57.859375 28.589844 58.222656 28.949219 C 58.320312 29.042969 58.417969 29.144531 58.519531 29.242188 C 58.625 29.34375 58.730469 29.445312 58.835938 29.550781 C 58.945312 29.660156 59.050781 29.765625 59.164062 29.878906 C 59.628906 30.332031 60.089844 30.789062 60.554688 31.246094 C 60.894531 31.578125 61.230469 31.914062 61.566406 32.246094 C 61.671875 32.347656 61.777344 32.453125 61.886719 32.558594 C 62.554688 33.222656 63.101562 33.769531 63.242188 34.734375 C 63.136719 35.488281 62.898438 35.730469 62.363281 36.261719 C 61.839844 36.527344 61.339844 36.539062 60.769531 36.421875 C 59.402344 35.542969 58.246094 34.070312 57.105469 32.917969 C 56.886719 32.699219 56.667969 32.480469 56.453125 32.261719 C 55.925781 31.730469 55.398438 31.203125 54.871094 30.671875 C 54.695312 30.820312 54.519531 30.972656 54.34375 31.121094 C 54.246094 31.203125 54.144531 31.285156 54.042969 31.371094 C 53.488281 31.820312 53.488281 31.820312 53.214844 32.441406 C 53.214844 32.570312 53.214844 32.695312 53.210938 32.824219 C 53.207031 32.964844 53.207031 33.105469 53.199219 33.246094 C 53.199219 33.394531 53.199219 33.535156 53.195312 33.683594 C 53.179688 35.433594 53.179688 35.433594 52.636719 36.101562 C 52.160156 36.476562 51.636719 36.488281 51.039062 36.472656 C 50.519531 36.386719 50.269531 36.167969 49.925781 35.785156 C 49.53125 34.90625 49.566406 34.058594 49.574219 33.113281 C 49.574219 32.941406 49.574219 32.769531 49.574219 32.589844 C 49.574219 32.011719 49.574219 31.4375 49.578125 30.859375 C 49.582031 30.457031 49.582031 30.050781 49.582031 29.644531 C 49.589844 28.761719 49.59375 27.882812 49.597656 27.003906 C 49.605469 26 49.609375 24.996094 49.613281 23.992188 C 49.613281 22.789062 49.621094 21.585938 49.628906 20.378906 C 49.636719 19.726562 49.636719 19.070312 49.640625 18.414062 C 49.640625 17.792969 49.644531 17.171875 49.652344 16.550781 C 49.652344 16.320312 49.652344 16.089844 49.652344 15.859375 C 49.652344 15.542969 49.660156 15.226562 49.664062 14.910156 C 49.664062 14.734375 49.664062 14.558594 49.667969 14.375 C 49.800781 13.746094 50.082031 13.503906 50.566406 13.097656 C 51.078125 12.84375 51.605469 12.863281 52.160156 12.941406 Z M 52.160156 12.941406 "/>
<path style=" stroke:none;fill-rule:nonzero;fill:rgb(99.607843%,99.607843%,99.607843%);fill-opacity:1;" d="M 171.503906 19.933594 C 171.675781 19.933594 171.851562 19.929688 172.027344 19.925781 C 172.820312 19.917969 173.613281 19.910156 174.402344 19.902344 C 174.816406 19.902344 175.234375 19.894531 175.648438 19.886719 C 176.253906 19.875 176.855469 19.871094 177.457031 19.871094 C 177.730469 19.863281 177.730469 19.863281 178.011719 19.855469 C 179.671875 19.859375 180.964844 20.421875 182.207031 21.527344 C 183.113281 22.519531 183.515625 23.746094 183.558594 25.082031 C 183.410156 25.792969 183.199219 26.253906 182.605469 26.675781 C 181.96875 26.871094 181.496094 26.910156 180.878906 26.648438 C 180.132812 26.027344 179.941406 25.414062 179.722656 24.496094 C 179.535156 24.03125 179.359375 23.902344 178.933594 23.644531 C 178.5625 23.566406 178.5625 23.566406 178.160156 23.574219 C 178.003906 23.574219 177.851562 23.570312 177.691406 23.566406 C 177.527344 23.566406 177.363281 23.566406 177.191406 23.566406 C 177.019531 23.566406 176.851562 23.566406 176.675781 23.5625 C 176.316406 23.5625 175.953125 23.5625 175.59375 23.5625 C 175.042969 23.5625 174.488281 23.554688 173.9375 23.550781 C 173.589844 23.546875 173.238281 23.546875 172.886719 23.546875 C 172.722656 23.542969 172.558594 23.542969 172.386719 23.539062 C 171.675781 23.546875 171.238281 23.574219 170.621094 23.9375 C 170.183594 24.683594 170.210938 25.351562 170.21875 26.203125 C 170.21875 26.375 170.214844 26.542969 170.214844 26.722656 C 170.214844 27.082031 170.21875 27.441406 170.222656 27.800781 C 170.222656 28.351562 170.222656 28.902344 170.214844 29.457031 C 170.214844 29.804688 170.214844 30.15625 170.21875 30.503906 C 170.214844 30.753906 170.214844 30.753906 170.214844 31.003906 C 170.226562 31.761719 170.234375 32.144531 170.691406 32.769531 C 171.269531 33.167969 171.730469 33.246094 172.429688 33.25 C 172.558594 33.25 172.691406 33.253906 172.824219 33.253906 C 173.035156 33.253906 173.035156 33.253906 173.246094 33.253906 C 173.394531 33.253906 173.539062 33.253906 173.6875 33.253906 C 173.996094 33.253906 174.300781 33.253906 174.609375 33.253906 C 175.074219 33.257812 175.542969 33.261719 176.011719 33.261719 C 176.308594 33.261719 176.605469 33.261719 176.90625 33.261719 C 177.113281 33.265625 177.113281 33.265625 177.324219 33.269531 C 178.136719 33.261719 178.804688 33.167969 179.574219 32.90625 C 179.613281 32.714844 179.613281 32.714844 179.652344 32.515625 C 180.023438 30.808594 180.023438 30.808594 180.847656 30.191406 C 181.332031 29.949219 181.753906 30.003906 182.285156 30.03125 C 182.84375 30.21875 183.09375 30.496094 183.402344 30.988281 C 183.597656 32.226562 183.390625 33.277344 182.761719 34.34375 C 182.707031 34.445312 182.652344 34.542969 182.59375 34.648438 C 181.898438 35.757812 180.808594 36.378906 179.574219 36.742188 C 179.121094 36.785156 179.121094 36.785156 178.652344 36.785156 C 178.472656 36.785156 178.292969 36.789062 178.113281 36.789062 C 177.921875 36.789062 177.730469 36.789062 177.535156 36.789062 C 177.339844 36.789062 177.144531 36.792969 176.941406 36.792969 C 176.417969 36.792969 175.894531 36.792969 175.371094 36.792969 C 174.839844 36.792969 174.308594 36.792969 173.78125 36.800781 C 173.375 36.800781 172.96875 36.800781 172.5625 36.800781 C 172.375 36.800781 172.183594 36.800781 171.988281 36.804688 C 170.566406 36.796875 169.492188 36.613281 168.390625 35.632812 C 168.203125 35.472656 168.203125 35.472656 168.011719 35.308594 C 166.878906 33.925781 166.511719 32.582031 166.542969 30.820312 C 166.542969 30.628906 166.542969 30.433594 166.542969 30.238281 C 166.542969 29.832031 166.542969 29.433594 166.550781 29.027344 C 166.558594 28.414062 166.558594 27.800781 166.554688 27.1875 C 166.558594 26.792969 166.558594 26.402344 166.558594 26.007812 C 166.558594 25.824219 166.558594 25.644531 166.558594 25.457031 C 166.589844 23.753906 167.042969 22.488281 168.214844 21.242188 C 169.199219 20.367188 170.203125 19.957031 171.503906 19.933594 Z M 171.503906 19.933594 "/>
<path style=" stroke:none;fill-rule:nonzero;fill:rgb(99.607843%,99.607843%,99.607843%);fill-opacity:1;" d="M 90.058594 19.597656 C 90.253906 19.597656 90.449219 19.597656 90.648438 19.597656 C 91.0625 19.597656 91.472656 19.601562 91.886719 19.605469 C 92.507812 19.609375 93.132812 19.609375 93.757812 19.613281 C 94.160156 19.613281 94.558594 19.613281 94.964844 19.617188 C 95.238281 19.617188 95.238281 19.617188 95.519531 19.617188 C 99.78125 19.652344 99.78125 19.652344 101.472656 20.796875 C 102.8125 22.167969 103.363281 23.582031 103.371094 25.488281 C 103.371094 25.691406 103.375 25.894531 103.375 26.105469 C 103.375 26.328125 103.375 26.550781 103.375 26.773438 C 103.375 27 103.378906 27.230469 103.378906 27.457031 C 103.378906 27.9375 103.378906 28.417969 103.378906 28.894531 C 103.378906 29.511719 103.378906 30.121094 103.382812 30.734375 C 103.386719 31.207031 103.386719 31.679688 103.386719 32.152344 C 103.386719 32.378906 103.386719 32.605469 103.386719 32.828125 C 103.386719 33.144531 103.386719 33.460938 103.386719 33.777344 C 103.386719 33.957031 103.386719 34.136719 103.386719 34.320312 C 103.332031 35.046875 103.191406 35.597656 102.710938 36.152344 C 102.296875 36.503906 102.113281 36.574219 101.566406 36.652344 C 100.875 36.574219 100.582031 36.449219 100.074219 35.988281 C 99.546875 35.171875 99.695312 34.09375 99.707031 33.152344 C 99.707031 32.910156 99.707031 32.664062 99.703125 32.421875 C 99.699219 31.78125 99.703125 31.144531 99.707031 30.503906 C 99.714844 29.480469 99.710938 28.457031 99.707031 27.433594 C 99.707031 27.078125 99.710938 26.722656 99.714844 26.363281 C 99.714844 26.144531 99.714844 25.925781 99.714844 25.707031 C 99.714844 25.515625 99.714844 25.324219 99.71875 25.128906 C 99.679688 24.578125 99.578125 24.148438 99.363281 23.644531 C 98.507812 23.152344 97.417969 23.265625 96.464844 23.257812 C 96.277344 23.253906 96.089844 23.25 95.898438 23.246094 C 95.304688 23.238281 94.714844 23.230469 94.121094 23.222656 C 93.714844 23.214844 93.316406 23.210938 92.910156 23.203125 C 91.925781 23.191406 90.941406 23.175781 89.953125 23.164062 C 89.957031 23.308594 89.957031 23.453125 89.957031 23.605469 C 89.964844 24.980469 89.972656 26.355469 89.980469 27.730469 C 89.980469 28.433594 89.984375 29.144531 89.988281 29.847656 C 89.996094 30.53125 89.996094 31.214844 90 31.894531 C 90 32.15625 90.003906 32.417969 90.003906 32.675781 C 90.007812 33.042969 90.007812 33.40625 90.007812 33.769531 C 90.007812 33.980469 90.011719 34.1875 90.011719 34.402344 C 89.933594 35.207031 89.746094 35.871094 89.105469 36.410156 C 88.589844 36.617188 88.273438 36.660156 87.722656 36.582031 C 87.136719 36.253906 86.816406 36.019531 86.445312 35.464844 C 86.414062 35.003906 86.402344 34.5625 86.402344 34.105469 C 86.402344 33.964844 86.402344 33.824219 86.398438 33.683594 C 86.394531 33.222656 86.394531 32.765625 86.398438 32.304688 C 86.394531 31.988281 86.394531 31.667969 86.394531 31.347656 C 86.394531 30.675781 86.394531 30.007812 86.394531 29.339844 C 86.394531 28.480469 86.394531 27.621094 86.390625 26.761719 C 86.386719 26.105469 86.386719 25.445312 86.386719 24.785156 C 86.386719 24.46875 86.386719 24.152344 86.386719 23.835938 C 86.382812 23.394531 86.386719 22.949219 86.386719 22.507812 C 86.386719 22.3125 86.386719 22.3125 86.382812 22.113281 C 86.390625 21.335938 86.488281 20.800781 86.925781 20.128906 C 87.902344 19.503906 88.929688 19.582031 90.058594 19.597656 Z M 90.058594 19.597656 "/>
<path style=" stroke:none;fill-rule:nonzero;fill:rgb(99.607843%,99.607843%,99.607843%);fill-opacity:1;" d="M 15.480469 12.941406 C 15.894531 13.289062 16.199219 13.574219 16.441406 14.058594 C 16.453125 14.464844 16.457031 14.871094 16.457031 15.277344 C 16.457031 15.394531 16.457031 15.519531 16.453125 15.640625 C 16.453125 16.027344 16.449219 16.410156 16.449219 16.792969 C 16.449219 17.050781 16.449219 17.3125 16.449219 17.574219 C 16.445312 18.210938 16.441406 18.851562 16.441406 19.488281 C 16.597656 19.484375 16.757812 19.480469 16.921875 19.480469 C 17.515625 19.464844 18.109375 19.460938 18.703125 19.453125 C 18.960938 19.449219 19.214844 19.445312 19.472656 19.441406 C 19.839844 19.433594 20.210938 19.429688 20.582031 19.425781 C 20.695312 19.421875 20.808594 19.417969 20.925781 19.417969 C 21.738281 19.417969 22.191406 19.613281 22.816406 20.128906 C 23.121094 20.621094 23.136719 20.902344 23.128906 21.484375 C 22.949219 22.152344 22.703125 22.410156 22.179688 22.84375 C 21.691406 23.089844 21.179688 23.023438 20.644531 23.019531 C 20.464844 23.019531 20.464844 23.019531 20.28125 23.019531 C 19.898438 23.019531 19.511719 23.015625 19.128906 23.011719 C 18.871094 23.011719 18.613281 23.011719 18.351562 23.011719 C 17.714844 23.011719 17.074219 23.003906 16.441406 23.003906 C 16.441406 24.238281 16.449219 25.476562 16.464844 26.714844 C 16.46875 27.132812 16.46875 27.554688 16.472656 27.972656 C 16.472656 28.582031 16.480469 29.183594 16.488281 29.789062 C 16.484375 29.976562 16.484375 30.164062 16.484375 30.359375 C 16.492188 31.402344 16.492188 31.402344 16.972656 32.304688 C 17.605469 32.726562 18.058594 32.765625 18.800781 32.769531 C 18.980469 32.773438 19.164062 32.777344 19.351562 32.777344 C 19.734375 32.785156 20.117188 32.785156 20.5 32.789062 C 21.898438 32.816406 21.898438 32.816406 22.535156 33.28125 C 22.886719 33.808594 23.050781 34.195312 23.136719 34.824219 C 22.960938 35.449219 22.824219 35.816406 22.300781 36.210938 C 21.792969 36.457031 21.453125 36.480469 20.894531 36.480469 C 20.613281 36.480469 20.613281 36.480469 20.332031 36.480469 C 20.136719 36.476562 19.945312 36.472656 19.746094 36.472656 C 19.558594 36.472656 19.371094 36.472656 19.175781 36.472656 C 17.164062 36.460938 15.777344 36.160156 14.257812 34.816406 C 13.003906 33.457031 12.816406 31.832031 12.855469 30.054688 C 12.855469 29.851562 12.855469 29.648438 12.855469 29.441406 C 12.859375 28.90625 12.867188 28.375 12.878906 27.839844 C 12.886719 27.292969 12.886719 26.75 12.894531 26.203125 C 12.902344 25.136719 12.914062 24.070312 12.933594 23.003906 C 12.816406 23.007812 12.695312 23.011719 12.574219 23.015625 C 12.339844 23.019531 12.339844 23.019531 12.105469 23.023438 C 11.949219 23.027344 11.796875 23.03125 11.636719 23.035156 C 10.988281 22.988281 10.542969 22.804688 10.019531 22.414062 C 9.640625 21.910156 9.59375 21.558594 9.582031 20.925781 C 9.828125 20.253906 10.078125 19.84375 10.699219 19.488281 C 11.25 19.441406 11.25 19.441406 11.855469 19.457031 C 12.058594 19.464844 12.257812 19.46875 12.464844 19.472656 C 12.621094 19.476562 12.773438 19.484375 12.933594 19.488281 C 12.929688 19.332031 12.925781 19.179688 12.925781 19.019531 C 12.914062 18.441406 12.910156 17.867188 12.902344 17.289062 C 12.902344 17.039062 12.898438 16.792969 12.894531 16.542969 C 12.886719 16.183594 12.886719 15.824219 12.886719 15.464844 C 12.882812 15.355469 12.878906 15.242188 12.878906 15.128906 C 12.878906 14.386719 13.015625 13.886719 13.410156 13.257812 C 14.128906 12.75 14.636719 12.691406 15.480469 12.941406 Z M 15.480469 12.941406 "/>
<path style=" stroke:none;fill-rule:nonzero;fill:rgb(99.607843%,99.607843%,99.607843%);fill-opacity:1;" d="M 152.230469 19.785156 C 152.433594 19.785156 152.433594 19.785156 152.644531 19.785156 C 152.785156 19.785156 152.925781 19.785156 153.074219 19.789062 C 153.214844 19.785156 153.351562 19.785156 153.496094 19.785156 C 155.597656 19.789062 155.597656 19.789062 156.269531 20.347656 C 156.808594 21.011719 156.792969 21.582031 156.789062 22.402344 C 156.789062 22.519531 156.789062 22.632812 156.789062 22.753906 C 156.789062 23.140625 156.785156 23.527344 156.785156 23.914062 C 156.785156 24.183594 156.785156 24.449219 156.785156 24.714844 C 156.785156 25.421875 156.785156 26.128906 156.78125 26.832031 C 156.777344 27.550781 156.777344 28.269531 156.777344 28.992188 C 156.777344 30.402344 156.773438 31.816406 156.769531 33.226562 C 156.886719 33.222656 157.003906 33.21875 157.125 33.214844 C 157.359375 33.210938 157.359375 33.210938 157.597656 33.207031 C 157.828125 33.199219 157.828125 33.199219 158.0625 33.195312 C 158.714844 33.238281 159.160156 33.425781 159.679688 33.816406 C 160.066406 34.328125 160.121094 34.664062 160.121094 35.304688 C 159.925781 35.839844 159.675781 36.296875 159.1875 36.609375 C 158.792969 36.761719 158.488281 36.785156 158.066406 36.789062 C 157.917969 36.792969 157.761719 36.792969 157.605469 36.796875 C 157.441406 36.800781 157.277344 36.800781 157.105469 36.800781 C 156.933594 36.800781 156.765625 36.800781 156.589844 36.804688 C 156.230469 36.808594 155.871094 36.808594 155.511719 36.808594 C 154.957031 36.808594 154.410156 36.816406 153.859375 36.828125 C 153.511719 36.828125 153.160156 36.832031 152.808594 36.832031 C 152.644531 36.832031 152.480469 36.835938 152.3125 36.839844 C 151.035156 36.832031 151.035156 36.832031 150.449219 36.359375 C 149.972656 35.832031 149.90625 35.546875 149.878906 34.859375 C 149.9375 34.273438 150.152344 33.964844 150.550781 33.546875 C 151.453125 33.0625 152.171875 33.226562 153.261719 33.226562 C 153.261719 29.957031 153.261719 26.691406 153.261719 23.324219 C 152.527344 23.324219 151.789062 23.324219 151.027344 23.324219 C 150.066406 22.550781 150.066406 22.550781 149.914062 21.886719 C 149.925781 21.183594 149.996094 20.859375 150.441406 20.308594 C 151.03125 19.839844 151.488281 19.789062 152.230469 19.785156 Z M 152.230469 19.785156 "/>
<path style=" stroke:none;fill-rule:nonzero;fill:rgb(99.607843%,99.607843%,99.607843%);fill-opacity:1;" d="M 155.8125 13.257812 C 156.253906 13.605469 156.519531 13.878906 156.769531 14.378906 C 156.832031 15.171875 156.792969 15.664062 156.292969 16.292969 C 155.8125 16.667969 155.289062 16.679688 154.691406 16.664062 C 154.179688 16.582031 153.925781 16.347656 153.582031 15.972656 C 153.308594 15.503906 153.261719 15.238281 153.28125 14.695312 C 153.441406 14.144531 153.667969 13.835938 154.058594 13.417969 C 154.613281 13.140625 155.207031 13.160156 155.8125 13.257812 Z M 155.8125 13.257812 "/>
</g>
</svg>
